<?xml version="1.0" standalone="no"?>
<!DOCTYPE svg PUBLIC "-//W3C//DTD SVG 20010904//EN"
 "http://www.w3.org/TR/2001/REC-SVG-20010904/DTD/svg10.dtd">
<svg version="1.0" xmlns="http://www.w3.org/2000/svg"
 width="900.000000pt" height="1203.000000pt" viewBox="0 0 900.000000 1203.000000"
 preserveAspectRatio="xMidYMid meet">
<metadata>
Created by potrace 1.10, written by Peter Selinger 2001-2011
</metadata>
<g transform="translate(0.000000,1203.000000) scale(0.100000,-0.100000)"
fill="#00c9cc" stroke="none">
<path d="M6137 12008 c-10 -46 1 -522 12 -526 7 -2 11 23 11 80 0 46 3 170 7
276 5 169 4 192 -9 192 -9 0 -18 -10 -21 -22z"/>
<path d="M0 11734 l0 -34 49 0 c27 0 119 -9 203 -19 84 -11 223 -24 308 -30
85 -6 180 -13 210 -15 68 -6 365 -34 441 -42 44 -5 59 -3 72 11 18 18 23 50 8
59 -5 3 -58 8 -117 11 -188 9 -224 12 -658 51 -93 8 -232 17 -310 20 -77 3
-156 10 -173 14 -32 8 -33 8 -33 -26z"/>
<path d="M1854 11737 c-22 -7 -53 -22 -68 -34 -16 -13 -39 -23 -52 -23 -34 0
-60 -58 -45 -100 11 -34 71 -94 114 -117 49 -25 233 -50 353 -47 89 2 119 6
151 23 79 40 64 46 -100 43 -162 -4 -306 9 -396 37 l-56 17 -3 45 c-2 34 2 52
17 70 19 24 20 24 208 24 163 -1 199 -4 273 -23 93 -25 119 -43 129 -93 8 -41
24 -46 51 -19 27 27 22 59 -11 79 -15 9 -49 31 -75 50 -38 26 -59 34 -91 33
-24 0 -45 3 -48 8 -5 8 -69 19 -144 25 -20 2 -65 6 -101 9 -39 3 -81 0 -106
-7z"/>
<path d="M3213 11542 c-25 -4 -47 -27 -39 -41 4 -5 22 -7 41 -4 19 3 48 0 65
-7 41 -17 180 -5 180 16 0 8 -10 18 -23 23 -24 9 -188 19 -224 13z"/>
<path d="M4248 11463 c-1 -5 -2 -35 -2 -68 -1 -54 -3 -60 -24 -63 -12 -2 -27
-12 -32 -23 -9 -16 -22 -19 -91 -19 -88 0 -119 -10 -119 -40 0 -28 15 -33 116
-37 102 -3 111 1 123 59 4 21 16 37 31 45 14 7 42 29 63 49 58 58 47 104 -25
104 -21 0 -39 -3 -40 -7z"/>
<path d="M3910 11420 c-12 -7 -12 -12 -3 -21 10 -10 14 -9 19 5 8 22 2 27 -16
16z"/>
<path d="M5983 11329 c-42 -12 -43 -40 -3 -76 28 -24 29 -28 14 -44 -9 -10
-14 -30 -12 -51 2 -27 8 -34 29 -36 16 -2 32 5 44 18 16 18 17 25 7 52 -9 26
-8 34 10 59 18 24 20 34 12 57 -11 31 -45 38 -101 21z"/>
<path d="M8870 11251 c-100 -21 -186 -110 -177 -182 5 -38 78 -143 108 -153 8
-4 57 -8 107 -11 l92 -4 0 49 c0 53 -8 60 -36 33 -10 -11 -38 -18 -74 -21 -55
-4 -59 -2 -99 33 -35 32 -41 43 -41 76 0 44 21 102 41 115 21 13 142 5 166
-11 35 -23 43 -18 43 29 0 41 -2 44 -31 50 -36 7 -50 6 -99 -3z"/>
<path d="M6137 11073 c-11 -10 -8 -43 3 -43 6 0 10 11 10 25 0 26 -2 29 -13
18z"/>
<path d="M6132 10997 c-7 -8 -10 -47 -7 -97 2 -47 -1 -114 -6 -150 -5 -36 -11
-168 -13 -295 -1 -126 -5 -282 -7 -345 -4 -86 -1 -124 9 -150 l15 -35 15 35
c10 24 12 53 8 91 -4 41 -1 61 9 75 19 25 19 66 0 110 -8 20 -13 40 -10 44 3
4 8 167 11 363 6 348 4 388 -24 354z"/>
<path d="M980 10560 c-93 -12 -173 -50 -190 -90 -9 -22 -10 -34 -2 -42 17 -17
42 -1 54 32 5 17 19 35 30 41 11 6 99 11 208 12 136 2 193 6 202 15 9 9 9 15
0 25 -16 15 -205 19 -302 7z"/>
<path d="M1310 10531 c0 -5 18 -16 41 -25 40 -16 41 -17 37 -59 -3 -23 -8 -50
-12 -60 -6 -13 -5 -16 8 -11 9 3 16 15 16 25 0 11 6 22 14 25 27 10 30 64 4
64 -5 0 -24 11 -42 25 -33 25 -66 33 -66 16z"/>
<path d="M4143 10449 c-66 -6 -143 -29 -143 -42 0 -3 207 -2 350 1 58 2 63 3
49 18 -10 9 -36 16 -67 17 -28 1 -54 6 -58 10 -8 8 -14 8 -131 -4z"/>
<path d="M3924 10386 c-3 -8 -4 -21 -2 -29 2 -12 11 -8 38 14 l34 29 -32 0
c-19 0 -35 -6 -38 -14z"/>
<path d="M1348 10364 c-4 -3 -115 -5 -247 -5 -147 0 -241 -4 -241 -9 0 -6 12
-10 27 -10 14 0 35 -8 46 -17 16 -16 41 -18 177 -18 136 0 161 2 177 18 11 9
29 17 41 17 11 0 24 5 27 11 8 12 2 22 -7 13z"/>
<path d="M6925 10292 c-97 -9 -58 -32 55 -32 88 0 125 10 99 26 -14 8 -97 12
-154 6z"/>
<path d="M8893 10288 c-27 -13 -28 -26 -9 -72 13 -31 33 -218 29 -261 -3 -24
-19 -628 -28 -1035 -3 -157 -7 -339 -9 -405 -2 -91 -6 -481 -6 -615 0 -32 -8
-251 -14 -365 -13 -289 -17 -439 -10 -480 l6 -45 26 38 c20 29 26 51 28 102 4
99 4 110 2 190 -1 43 4 85 11 98 9 17 9 27 0 43 -16 30 -16 183 0 202 8 10 14
61 16 146 2 72 7 140 10 151 4 11 1 36 -5 55 -8 23 -8 40 -1 53 6 12 7 76 2
182 -10 188 -6 214 32 218 21 3 27 9 27 28 0 13 -5 23 -11 22 -5 -2 -21 22
-34 52 -18 43 -22 66 -18 105 7 55 27 95 49 95 9 0 14 12 14 35 0 23 -5 35
-14 35 -17 0 -26 21 -26 60 0 28 21 55 33 43 4 -3 7 87 7 201 0 128 -4 205 -9
201 -12 -7 -34 32 -26 45 3 6 13 10 21 10 12 0 14 44 14 289 0 280 -1 289 -20
294 -16 4 -20 14 -20 46 0 30 5 44 20 53 18 11 20 24 20 105 l0 93 -42 -1
c-24 0 -53 -5 -65 -11z"/>
<path d="M4078 10252 c-49 -1 -88 -7 -88 -12 0 -13 35 -30 62 -30 13 0 34 -7
46 -16 12 -8 28 -12 34 -8 7 5 46 9 88 11 143 6 215 22 193 44 -11 11 -176 16
-335 11z"/>
<path d="M7270 10215 c0 -6 4 -15 9 -20 5 -6 11 -19 14 -30 5 -20 5 -19 6 1 0
11 -6 29 -14 40 -8 10 -15 14 -15 9z"/>
<path d="M8523 10150 c-13 -5 -23 -14 -23 -20 0 -5 -8 -10 -18 -10 -10 0 -35
-9 -57 -20 -22 -11 -45 -20 -53 -20 -7 0 -25 -12 -40 -27 -21 -21 -41 -29 -85
-34 -32 -4 -77 -16 -100 -27 -23 -11 -60 -25 -82 -32 -22 -6 -49 -15 -60 -19
-11 -5 -47 -16 -80 -26 -33 -9 -66 -22 -72 -27 -18 -15 -16 -99 3 -126 20 -29
34 -20 34 24 0 21 6 37 15 40 8 3 17 13 20 22 7 22 50 42 90 42 21 0 40 9 55
25 16 17 34 25 57 25 18 0 50 9 70 20 21 11 48 20 60 20 13 0 33 11 45 25 15
17 32 25 54 25 24 0 37 6 45 21 8 17 17 20 40 15 21 -4 29 -2 29 8 0 16 21 26
53 26 26 1 100 44 90 53 -9 10 -64 7 -90 -3z"/>
<path d="M6841 10091 c-17 -11 1 -17 84 -27 133 -16 267 -2 250 26 -8 12 -314
13 -334 1z"/>
<path d="M6103 9833 c-8 -34 -9 -90 0 -158 3 -27 6 -53 7 -57 0 -5 5 -8 10 -8
6 0 10 16 10 36 0 19 5 55 11 78 12 48 1 127 -18 133 -7 3 -16 -8 -20 -24z"/>
<path d="M5074 9789 c-3 -5 6 -9 20 -9 31 0 34 6 6 13 -11 3 -23 1 -26 -4z"/>
<path d="M7855 9701 c-3 -5 -5 -99 -5 -208 0 -109 0 -223 0 -253 0 -30 0 -69
0 -87 0 -18 4 -34 9 -37 13 -9 23 87 22 229 -1 72 3 159 8 195 12 92 -10 199
-34 161z"/>
<path d="M0 9606 c0 -35 1 -36 38 -37 164 -5 450 -7 465 -3 29 9 9 24 -31 22
-20 0 -93 7 -162 16 -69 9 -163 19 -209 21 -46 3 -88 8 -92 11 -5 3 -9 -11 -9
-30z"/>
<path d="M1761 9516 c-9 -11 -8 -15 6 -22 23 -10 260 -44 339 -48 33 -1 65 -5
70 -9 5 -3 72 -6 149 -8 77 -1 163 -6 190 -10 28 -5 156 -10 285 -13 129 -3
357 -12 505 -20 149 -8 304 -15 345 -14 184 1 589 -14 726 -28 82 -8 158 -14
169 -14 193 3 250 8 253 24 2 9 -2 18 -10 21 -20 7 -675 39 -742 36 -32 -1
-107 2 -165 8 -58 6 -196 13 -305 16 -110 3 -203 8 -207 11 -8 4 -71 8 -394
20 -224 8 -538 24 -580 28 -22 3 -146 7 -275 11 -129 3 -255 10 -280 15 -61
12 -66 12 -79 -4z"/>
<path d="M4828 9365 c-33 -35 20 -43 292 -45 96 -1 183 -6 192 -11 21 -11 127
-20 228 -20 46 0 80 -5 90 -13 11 -9 36 -10 100 -5 47 5 112 9 144 9 33 1 69
6 80 12 20 11 20 12 -9 24 -16 7 -50 10 -75 8 -25 -3 -90 0 -145 5 -55 6 -172
13 -260 16 -88 3 -182 7 -210 8 -173 12 -421 18 -427 12z"/>
<path d="M6105 9352 c-5 -4 -18 -17 -28 -28 -17 -21 -17 -23 2 -55 12 -19 21
-43 21 -55 0 -11 7 -29 15 -40 13 -17 14 -15 15 33 0 29 5 64 12 78 8 19 8 31
0 50 -12 26 -20 30 -37 17z"/>
<path d="M6343 9312 c-52 -4 -58 -22 -8 -22 22 0 38 -6 41 -14 4 -9 21 -14 51
-14 28 0 52 -7 63 -17 16 -15 25 -15 73 -5 43 10 58 10 78 -1 28 -15 99 -21
216 -19 115 2 134 -12 133 -94 -1 -34 1 -117 5 -186 3 -69 6 -132 6 -140 0 -8
-3 -58 -6 -110 -4 -52 -6 -110 -5 -127 0 -18 1 -52 1 -75 1 -24 -1 -122 -5
-218 -10 -261 -14 -401 -17 -538 -1 -74 -7 -132 -14 -146 -8 -16 -9 -28 -3
-34 5 -5 12 -67 15 -137 4 -121 3 -129 -21 -179 l-26 -53 23 -59 c21 -53 23
-70 17 -159 -4 -73 -11 -112 -27 -141 -19 -37 -19 -45 -8 -123 13 -92 10 -216
-7 -273 -8 -28 -8 -41 0 -51 12 -14 10 -103 -4 -312 -8 -109 -7 -349 2 -542 5
-106 4 -143 -5 -143 -6 0 -15 8 -18 18 -4 9 -19 37 -33 62 -15 25 -30 57 -33
72 -14 56 -112 74 -138 26 -20 -38 -69 -193 -69 -220 0 -26 3 -28 39 -28 34 0
40 -4 50 -30 14 -40 45 -40 66 1 19 36 20 33 -25 45 -33 9 -36 13 -44 63 -13
75 1 125 36 129 15 2 37 -2 48 -8 20 -11 21 -17 15 -78 -4 -37 -9 -75 -11 -84
-4 -14 4 -17 48 -20 l53 -3 6 -85 c8 -96 5 -101 -56 -98 l-40 3 -3 -49 c-3
-48 -2 -49 62 -112 36 -34 66 -70 66 -78 0 -23 28 -20 35 4 3 11 4 23 2 27 -3
5 -1 60 3 123 5 63 11 232 15 375 3 143 8 285 10 315 2 30 6 199 9 375 6 310
12 509 21 760 2 66 7 298 10 515 4 217 8 409 10 425 2 17 6 165 10 330 3 165
7 397 10 515 3 118 1 241 -3 272 -5 31 -5 63 -1 70 4 8 13 68 18 133 8 93 8
122 -2 132 -8 8 -76 14 -222 17 -115 3 -234 10 -263 16 -48 9 -142 10 -249 2z
m572 -4264 c-11 -65 -25 -70 -25 -10 0 41 3 52 16 52 13 0 15 -7 9 -42z"/>
<path d="M1013 9154 c-9 -23 11 -38 26 -20 13 16 7 36 -10 36 -5 0 -12 -7 -16
-16z"/>
<path d="M1233 9154 c-8 -23 9 -69 27 -69 8 0 21 12 29 27 13 22 13 29 2 42
-17 21 -50 21 -58 0z"/>
<path d="M4406 9113 c-44 -23 -20 -33 83 -33 105 0 161 7 161 21 0 21 -207 31
-244 12z"/>
<path d="M2452 9084 c-25 -17 -27 -39 -10 -95 14 -47 32 -49 58 -7 51 85 21
150 -48 102z"/>
<path d="M1092 9068 c-7 -7 -12 -22 -12 -34 0 -27 56 -50 96 -40 21 6 54 55
54 81 0 11 -126 5 -138 -7z"/>
<path d="M3585 9050 c-8 -12 20 -24 35 -15 6 3 8 11 5 16 -8 12 -32 12 -40 -1z"/>
<path d="M7859 9045 c-4 -5 -10 -40 -14 -77 -5 -57 -4 -68 9 -68 8 0 17 8 20
18 6 23 -7 140 -15 127z"/>
<path d="M6595 9020 c-4 -6 15 -10 50 -10 35 0 54 4 50 10 -3 6 -26 10 -50 10
-24 0 -47 -4 -50 -10z"/>
<path d="M6112 8958 c2 -13 8 -23 13 -23 6 0 11 10 13 23 2 15 -2 22 -13 22
-11 0 -15 -7 -13 -22z"/>
<path d="M6418 8974 c-4 -4 -36 -12 -70 -19 l-63 -12 39 -17 c21 -10 51 -27
67 -38 36 -27 59 -18 59 25 0 35 -20 73 -32 61z"/>
<path d="M5721 8954 c-14 -11 -13 -13 10 -19 39 -10 74 -2 74 15 0 19 -59 21
-84 4z"/>
<path d="M4176 8945 c-11 -8 -34 -15 -52 -15 -46 0 -275 -91 -414 -164 -14 -7
-37 -16 -52 -20 -29 -7 -39 -36 -13 -36 18 0 9 -29 -22 -64 -17 -19 -33 -26
-58 -26 -24 0 -39 -6 -47 -21 -7 -11 -27 -29 -45 -40 -18 -11 -35 -29 -38 -40
-4 -12 -13 -18 -21 -15 -9 3 -20 -7 -30 -27 -17 -32 -101 -117 -116 -117 -18
0 -6 -28 16 -38 21 -9 25 -8 29 9 4 14 12 20 28 17 27 -4 51 -38 32 -45 -7 -3
-13 -12 -13 -20 0 -14 3 -14 19 1 14 13 28 16 50 11 23 -5 32 -2 40 14 6 10
24 22 41 26 30 7 38 19 20 30 -5 3 -10 15 -10 26 0 25 -27 25 -35 0 -5 -16
-31 -30 -57 -31 -4 0 -12 9 -18 20 -14 26 2 58 35 70 17 6 26 20 31 45 7 40
40 55 77 37 36 -17 147 -21 147 -5 0 8 10 18 23 23 20 8 20 9 -8 9 -54 2 -106
14 -103 23 4 12 115 58 139 58 10 0 20 8 24 19 7 23 72 35 109 21 14 -5 32 -7
41 -4 12 5 12 9 -1 29 -15 23 -14 24 15 39 16 9 37 16 47 16 10 0 14 5 10 15
-6 18 26 34 114 59 56 15 220 26 220 15 0 -4 -11 -17 -25 -30 -24 -23 -35 -79
-16 -79 5 0 23 12 41 26 17 14 48 30 70 35 34 8 43 6 60 -11 25 -25 25 -37 -1
-45 -30 -10 -21 -14 65 -26 70 -9 79 -9 91 7 11 15 16 16 44 4 17 -7 48 -26
69 -42 29 -24 43 -28 67 -23 16 3 47 9 68 12 20 3 37 9 37 14 0 4 7 6 15 3 19
-8 19 -35 0 -60 -43 -56 4 -79 74 -35 42 26 51 28 61 15 8 -9 32 -14 71 -14
57 0 59 -1 59 -26 0 -15 -8 -33 -17 -40 -17 -13 -17 -13 0 -14 11 0 31 -12 46
-27 15 -16 35 -33 46 -39 19 -11 19 -12 2 -32 -10 -11 -32 -22 -48 -26 -44 -8
-31 -31 18 -32 49 -1 66 -11 59 -31 -4 -9 6 -29 23 -49 25 -28 32 -31 39 -18
13 24 -38 177 -79 236 -11 14 -19 40 -19 57 0 23 -11 43 -43 76 -24 25 -47 45
-50 45 -12 0 -7 -28 6 -33 6 -2 9 -7 6 -11 -3 -3 -23 0 -45 7 -44 16 -58 45
-24 54 33 9 4 23 -46 23 -33 0 -48 7 -79 35 -20 20 -34 39 -30 43 4 4 10 1 12
-5 5 -14 43 -18 43 -5 0 5 -9 17 -20 27 -19 17 -50 15 -50 -4 0 -5 -23 -12
-50 -16 -38 -5 -56 -3 -75 9 -33 21 -42 54 -19 70 17 13 16 14 -7 21 -13 3
-38 13 -55 20 -23 11 -40 12 -68 4 -40 -11 -140 4 -152 22 -3 5 -33 9 -67 8
-34 -1 -102 1 -152 5 -73 6 -94 4 -109 -9z m520 -96 c35 -21 46 -49 19 -49 -9
0 -18 7 -21 15 -4 8 -18 15 -34 15 -21 0 -29 -6 -34 -25 -11 -43 -38 -48 -95
-19 -28 15 -51 33 -51 40 0 13 100 41 154 43 16 0 44 -8 62 -20z"/>
<path d="M5825 8930 c-3 -5 3 -10 14 -10 12 0 21 5 21 10 0 6 -6 10 -14 10 -8
0 -18 -4 -21 -10z"/>
<path d="M5962 8928 c3 -7 15 -15 27 -16 16 -3 22 1 19 10 -3 7 -15 15 -27 16
-16 3 -22 -1 -19 -10z"/>
<path d="M6590 8851 c0 -14 21 -19 60 -13 60 8 58 22 -3 22 -31 0 -57 -4 -57
-9z"/>
<path d="M1375 8780 c-10 -17 42 -30 116 -30 69 0 109 11 109 30 0 13 -217 13
-225 0z"/>
<path d="M6365 8628 c-44 -43 -57 -62 -50 -72 42 -56 47 -69 48 -118 2 -81
-12 -509 -18 -517 -5 -9 -19 -886 -17 -1111 1 -85 4 -167 8 -183 8 -33 -9 -57
-41 -57 -13 0 -26 -8 -30 -17 -4 -10 -9 -101 -11 -203 -2 -102 -6 -263 -9
-359 -3 -96 -6 -275 -6 -398 0 -209 1 -226 20 -257 22 -35 27 -66 12 -66 -5 0
-11 6 -14 13 -3 9 -7 9 -17 0 -19 -18 -4 -45 22 -41 20 3 23 -2 26 -38 2 -32
9 -44 28 -55 21 -11 27 -11 34 1 11 18 19 133 25 350 3 96 7 200 10 230 2 30
7 249 10 485 3 237 9 565 13 730 5 165 9 318 9 340 1 22 4 141 7 265 22 838
25 1046 13 1091 l-12 45 -60 -58z"/>
<path d="M198 8673 c12 -2 32 -2 45 0 12 2 2 4 -23 4 -25 0 -35 -2 -22 -4z"/>
<path d="M3235 8658 c-4 -13 -11 -59 -16 -103 -4 -44 -11 -99 -15 -122 -5 -35
-3 -44 11 -49 31 -12 35 1 72 234 8 53 -37 87 -52 40z"/>
<path d="M6127 8633 c-11 -10 -8 -671 2 -678 16 -9 33 33 37 89 2 28 8 107 13
176 5 71 5 132 0 141 -5 10 -4 31 1 50 6 19 7 55 4 81 -6 44 -5 48 15 48 11 0
21 5 21 11 0 7 12 9 35 5 20 -4 35 -3 35 2 0 14 -46 42 -67 42 -10 0 -31 9
-48 20 -33 22 -38 23 -48 13z"/>
<path d="M4050 8620 c0 -5 9 -10 21 -10 11 0 17 5 14 10 -3 6 -13 10 -21 10
-8 0 -14 -4 -14 -10z"/>
<path d="M5363 8613 c-30 -6 -29 -27 2 -47 21 -14 39 -16 97 -10 62 6 73 5 84
-11 10 -13 17 -15 26 -7 8 6 38 9 68 8 30 -2 64 1 75 7 29 15 77 19 100 8 11
-5 36 -12 56 -15 20 -4 47 -18 60 -32 23 -24 24 -32 22 -132 -1 -59 -5 -153
-8 -209 -6 -94 -5 -103 14 -122 12 -12 21 -33 21 -47 0 -46 25 -21 26 27 0 24
4 157 8 294 8 295 9 294 -70 277 -88 -20 -132 -24 -138 -13 -4 6 -19 8 -35 5
-15 -3 -58 2 -95 11 -54 14 -73 15 -96 5 -16 -7 -33 -9 -39 -6 -13 8 -149 15
-178 9z"/>
<path d="M3910 8590 c0 -11 68 -25 78 -16 3 4 0 11 -8 16 -20 13 -70 13 -70 0z"/>
<path d="M1403 8513 c-12 -30 1 -32 247 -36 102 -1 163 -6 177 -14 30 -18 41
-16 54 8 19 37 -5 50 -71 37 -30 -5 -82 -7 -115 -4 -250 25 -286 26 -292 9z"/>
<path d="M3522 8490 c-17 -28 -16 -30 17 -30 25 0 28 3 23 25 -5 30 -23 32
-40 5z"/>
<path d="M1997 8473 c-12 -12 -7 -41 7 -46 19 -7 40 18 32 38 -6 15 -28 20
-39 8z"/>
<path d="M2055 8460 c-12 -20 18 -42 46 -33 13 5 58 7 99 6 321 -13 400 -14
400 -7 0 21 -48 29 -130 23 -55 -4 -97 -2 -120 5 -49 17 -286 21 -295 6z"/>
<path d="M2725 8430 c-8 -13 20 -24 40 -16 8 3 15 10 15 16 0 13 -47 13 -55 0z"/>
<path d="M3027 8433 c-12 -11 -8 -101 5 -109 13 -8 67 53 68 77 0 30 -52 54
-73 32z"/>
<path d="M2666 8423 c-11 -11 -6 -23 9 -23 8 0 15 4 15 9 0 13 -16 22 -24 14z"/>
<path d="M3690 8380 c0 -11 5 -20 10 -20 6 0 10 9 10 20 0 11 -4 20 -10 20 -5
0 -10 -9 -10 -20z"/>
<path d="M3195 8332 c8 -47 -15 -92 -46 -92 -10 0 -24 -9 -31 -20 -17 -27 -29
-25 -63 10 -36 37 -65 40 -65 5 0 -18 7 -26 24 -31 35 -8 56 -36 49 -62 -3
-12 -9 -22 -14 -22 -5 0 -25 -17 -45 -37 l-36 -37 26 -13 c14 -8 26 -17 26
-21 0 -8 -70 -38 -112 -48 -22 -5 -28 -3 -28 10 0 30 -33 16 -81 -36 -27 -29
-49 -57 -49 -63 0 -5 -16 -30 -35 -54 -48 -60 -49 -114 -4 -154 25 -22 30 -32
24 -50 -10 -27 -11 -79 -13 -702 -2 -656 7 -1276 18 -1290 6 -7 6 -80 0 -191
-6 -98 -7 -214 -4 -256 6 -67 10 -78 25 -78 13 0 19 7 19 23 0 13 5 28 11 34
8 8 7 17 -4 34 -12 20 -14 40 -7 114 8 84 9 135 6 435 0 63 0 133 1 155 2 22
0 115 -3 207 -5 140 -3 171 9 189 12 16 13 28 6 47 -5 14 -10 107 -10 206 0
100 0 190 0 201 0 11 0 79 1 150 1 72 -1 270 -5 440 -6 290 -8 311 -26 327
-10 9 -19 22 -19 29 0 31 74 161 106 187 44 35 94 52 115 39 22 -14 69 19 69
48 0 24 17 35 56 35 16 0 27 8 33 22 6 17 16 22 51 22 29 1 45 6 48 16 4 12 2
13 -9 3 -23 -22 -59 -16 -69 12 -5 14 -14 25 -20 25 -6 0 1 15 15 34 14 18 23
40 20 48 -3 8 10 25 34 43 58 43 67 110 19 136 -19 10 -20 9 -13 -29z m-135
-258 c0 -9 -7 -14 -17 -12 -25 5 -28 28 -4 28 12 0 21 -6 21 -16z"/>
<path d="M4049 8350 c-11 -7 -10 -10 4 -16 10 -4 23 -2 28 3 14 14 -13 24 -32
13z"/>
<path d="M3660 8320 c0 -19 20 -27 33 -13 8 7 -11 33 -24 33 -5 0 -9 -9 -9
-20z"/>
<path d="M1845 8251 c-3 -6 -14 -11 -24 -11 -20 0 -69 -35 -61 -43 3 -3 30 -7
60 -8 l55 -4 0 34 c0 34 -17 52 -30 32z"/>
<path d="M3332 8238 c-5 -7 -12 -22 -16 -34 -6 -20 -6 -21 44 -5 27 8 50 18
50 21 0 5 -49 30 -61 30 -3 0 -11 -6 -17 -12z"/>
<path d="M5274 8239 c-4 -7 2 -19 16 -29 18 -14 21 -23 15 -48 -7 -36 3 -41
26 -14 20 23 14 78 -10 86 -9 3 -21 8 -28 12 -6 3 -14 0 -19 -7z"/>
<path d="M1994 8215 c-13 -32 4 -46 43 -39 43 7 68 24 36 24 -11 0 -26 7 -33
15 -7 8 -19 15 -27 15 -7 0 -16 -7 -19 -15z"/>
<path d="M7 8214 c-4 -4 -7 -22 -7 -41 l0 -33 118 0 c64 0 133 1 152 1 19 0
71 4 115 9 44 6 85 10 93 10 7 0 11 4 8 9 -3 5 -36 12 -73 16 -37 4 -76 10
-88 15 -28 10 -309 23 -318 14z"/>
<path d="M2227 8197 c-21 -15 -12 -61 11 -52 8 3 24 -5 38 -20 22 -23 29 -25
123 -25 98 0 128 9 94 29 -17 9 -17 10 0 16 26 11 20 23 -15 30 -18 3 -44 10
-58 15 -46 15 -176 20 -193 7z"/>
<path d="M4201 8186 c-9 -10 -9 -16 -1 -21 17 -11 60 4 60 20 0 19 -44 20 -59
1z"/>
<path d="M2970 8165 c0 -8 5 -15 10 -15 6 0 10 7 10 15 0 8 -4 15 -10 15 -5 0
-10 -7 -10 -15z"/>
<path d="M661 8129 c-21 -8 -23 -14 -18 -50 3 -22 10 -46 16 -53 16 -19 46 -9
60 20 16 35 14 58 -7 77 -21 19 -19 19 -51 6z"/>
<path d="M5300 8070 c0 -5 7 -10 15 -10 8 0 15 5 15 10 0 6 -7 10 -15 10 -8 0
-15 -4 -15 -10z"/>
<path d="M5006 8044 c-5 -12 -2 -15 10 -10 8 3 18 6 20 6 3 0 2 5 -1 10 -9 15
-22 12 -29 -6z"/>
<path d="M4510 8021 c0 -5 7 -12 16 -15 22 -9 24 -8 24 9 0 8 -9 15 -20 15
-11 0 -20 -4 -20 -9z"/>
<path d="M5413 8003 c-24 -9 -6 -153 19 -153 18 0 29 54 21 104 -8 49 -16 59
-40 49z"/>
<path d="M4664 7975 c30 -16 56 -14 56 5 0 5 -19 10 -42 10 l-43 0 29 -15z"/>
<path d="M50 7970 c-13 -9 -13 -11 0 -20 17 -11 58 -12 115 -2 l40 8 -34 12
c-41 14 -100 15 -121 2z"/>
<path d="M4303 7963 c-25 -9 -14 -30 12 -25 14 2 24 9 22 15 -4 13 -18 17 -34
10z"/>
<path d="M2253 7954 c-22 -10 -14 -34 14 -45 15 -6 47 -7 72 -3 25 4 70 7 99
6 55 0 66 10 30 29 -23 13 -194 23 -215 13z"/>
<path d="M6120 7926 c0 -8 5 -18 10 -21 6 -3 10 3 10 14 0 12 -4 21 -10 21 -5
0 -10 -6 -10 -14z"/>
<path d="M264 7875 c-9 -23 3 -45 25 -45 29 0 36 18 15 41 -21 23 -33 24 -40
4z"/>
<path d="M5961 7788 c-7 -48 -10 -99 -7 -115 3 -15 0 -53 -7 -84 -10 -41 -11
-76 -5 -130 6 -50 5 -82 -2 -98 -8 -18 -7 -29 4 -46 18 -28 18 -111 0 -152
-13 -28 -16 -82 -11 -169 2 -30 25 -70 34 -60 3 3 7 98 10 213 2 114 8 271 12
348 9 152 6 303 -7 350 -7 25 -10 17 -21 -57z"/>
<path d="M8007 7851 c-6 -23 4 -154 11 -147 9 10 13 166 4 166 -5 0 -12 -9
-15 -19z"/>
<path d="M4130 7837 c0 -6 16 -26 36 -42 21 -17 44 -38 53 -47 19 -19 82 -48
106 -48 28 0 15 19 -32 46 -27 15 -71 45 -99 66 -55 41 -64 45 -64 25z"/>
<path d="M7310 7835 c0 -9 5 -15 11 -13 6 2 11 8 11 13 0 5 -5 11 -11 13 -6 2
-11 -4 -11 -13z"/>
<path d="M3075 7811 c-3 -5 -1 -12 5 -16 12 -7 30 2 30 16 0 12 -27 12 -35 0z"/>
<path d="M5420 7801 c-5 -11 -10 -28 -10 -39 0 -11 -12 -27 -26 -37 -25 -16
-25 -17 -8 -36 22 -25 31 -24 39 4 4 12 15 31 25 42 21 23 28 54 17 73 -12 17
-25 15 -37 -7z"/>
<path d="M4773 7783 c-7 -2 -13 -13 -13 -24 0 -16 7 -19 40 -19 44 0 55 21 21
40 -21 11 -29 11 -48 3z"/>
<path d="M2845 7756 c-17 -12 -16 -13 10 -20 30 -8 52 5 41 23 -10 15 -28 14
-51 -3z"/>
<path d="M3061 7722 c-1 -57 13 -82 47 -82 16 0 33 -5 40 -12 15 -15 15 -6 1
25 -6 13 -25 30 -42 38 -22 10 -34 23 -38 44 -6 27 -7 25 -8 -13z"/>
<path d="M6115 7688 c-10 -94 -20 -374 -16 -445 2 -29 28 -11 29 20 2 54 20
238 27 273 3 19 1 61 -5 95 -8 44 -8 64 0 74 8 10 8 19 -2 34 -7 12 -16 21
-19 21 -3 0 -10 -33 -14 -72z"/>
<path d="M3770 7716 c0 -22 17 -28 40 -16 29 16 25 30 -10 30 -19 0 -30 -5
-30 -14z"/>
<path d="M2425 7690 c-7 -11 -12 -140 -18 -410 -1 -69 -5 -130 -10 -137 -4 -6
-7 -24 -6 -40 1 -15 -2 -102 -6 -192 -5 -120 -4 -175 6 -208 8 -30 9 -47 2
-51 -15 -10 -21 -71 -11 -111 5 -20 8 -67 7 -106 -3 -114 8 -690 17 -884 6
-131 16 -193 27 -161 19 56 26 111 17 135 -6 15 -7 43 -3 63 8 46 7 -17 3 912
-2 426 -2 869 1 984 3 153 1 210 -8 213 -6 2 -14 -1 -18 -7z"/>
<path d="M4400 7680 c0 -5 12 -10 28 -10 34 0 102 -24 111 -38 4 -6 34 -20 66
-31 85 -27 175 -72 209 -104 35 -33 32 -34 -102 -40 -97 -4 -105 -6 -152 -38
-70 -48 -67 -63 13 -54 34 4 72 11 85 16 34 13 240 11 278 -3 28 -10 36 -9 52
5 20 18 72 23 72 7 0 -5 15 -10 33 -9 l32 1 -30 10 c-16 6 -37 17 -46 24 -8 8
-26 14 -40 14 -13 0 -33 7 -43 15 -11 8 -26 15 -34 15 -8 0 -31 13 -51 28 -20
15 -49 34 -65 42 -16 8 -45 34 -64 57 -20 23 -48 47 -64 54 -16 6 -33 20 -39
30 -9 17 -23 19 -129 19 -73 0 -120 -4 -120 -10z"/>
<path d="M5392 7599 c-13 -52 -38 -78 -84 -89 l-33 -7 33 -13 c31 -12 33 -15
27 -44 -3 -17 -9 -50 -12 -73 -3 -24 -8 -43 -12 -43 -10 0 -64 71 -86 114 -12
22 -25 41 -31 43 -15 5 -34 -99 -22 -115 14 -16 58 -181 68 -252 4 -30 13 -81
19 -112 10 -45 10 -62 0 -80 -7 -13 -12 -51 -10 -90 1 -58 -1 -70 -21 -90 -35
-35 -54 -77 -67 -150 -14 -71 -8 -126 14 -135 18 -6 9 -30 -27 -71 -15 -18
-28 -41 -28 -52 0 -28 -11 -50 -24 -50 -18 0 -56 -43 -56 -63 0 -10 6 -26 13
-38 10 -17 9 -22 -8 -34 -37 -26 -44 -35 -39 -48 3 -8 -2 -20 -11 -27 -8 -7
-15 -19 -15 -26 0 -18 -76 -94 -94 -94 -27 0 -65 -40 -68 -72 -3 -36 -28 -52
-28 -19 0 12 -7 24 -15 27 -19 8 -68 -31 -75 -59 -3 -11 -11 -22 -18 -25 -18
-6 -15 47 3 54 33 13 14 26 -27 20 -24 -4 -71 -9 -106 -10 -57 -3 -64 -2 -82
22 -23 28 -37 24 -21 -6 6 -12 11 -25 11 -30 0 -16 -28 -22 -55 -12 -16 6 -35
6 -52 -1 -36 -14 -92 -14 -106 0 -6 6 -19 11 -29 11 -10 0 -18 5 -18 10 0 21
-37 9 -49 -16 -6 -15 -10 -27 -9 -29 17 -11 106 -36 156 -43 47 -7 76 -5 115
5 70 19 133 24 165 12 21 -8 29 -7 39 7 16 22 31 9 17 -14 -6 -9 -26 -27 -44
-40 -28 -18 -41 -21 -82 -16 -31 4 -53 2 -62 -5 -8 -7 -36 -11 -62 -10 -27 1
-76 -2 -110 -6 -93 -11 -159 7 -204 55 -30 32 -44 40 -73 40 -19 0 -43 3 -52
6 -23 9 -75 89 -75 115 0 13 -10 33 -22 46 -12 13 -22 37 -22 56 -2 41 -54 97
-91 97 -18 0 -25 5 -25 19 0 17 -35 70 -77 116 -21 23 -40 53 -49 78 -7 20
-16 21 -32 5 -18 -18 -15 -35 17 -115 37 -91 45 -105 87 -160 19 -25 34 -53
34 -63 0 -19 54 -35 83 -25 17 7 32 -10 17 -20 -24 -15 -1 -100 40 -143 12
-12 25 -20 31 -17 17 11 30 -5 19 -25 -8 -15 -5 -20 21 -29 21 -7 35 -7 47 0
24 15 81 -6 64 -23 -19 -19 -15 -24 42 -52 46 -23 62 -26 105 -20 33 4 56 3
65 -5 10 -8 21 -8 40 -1 15 5 54 10 86 10 33 0 77 6 97 14 63 22 128 35 150
30 27 -7 110 21 150 52 17 13 39 24 48 24 9 0 28 9 42 19 33 27 56 17 48 -20
-4 -18 -2 -29 4 -29 6 0 11 5 11 10 0 6 0 12 0 15 1 16 55 103 85 136 19 21
35 43 35 48 0 5 6 16 13 23 7 7 30 45 51 83 21 39 48 81 60 95 44 51 64 87 69
125 3 22 17 94 31 160 14 66 26 137 26 158 0 40 4 42 47 26 23 -8 30 -7 40 7
18 25 16 41 -7 47 -23 6 -26 31 -6 69 13 25 20 63 17 96 -1 9 -12 12 -33 10
-33 -3 -33 -3 -35 45 l-2 47 34 0 c19 0 35 5 35 11 0 6 -21 35 -46 65 -60 70
-56 92 27 154 23 17 27 29 33 92 4 40 11 89 16 108 20 80 33 207 23 236 l-9
28 -12 -45z m-123 -881 c12 -33 2 -68 -20 -68 -20 0 -23 10 -13 59 8 36 21 40
33 9z m-56 -138 c-7 -27 -20 -34 -27 -14 -7 19 1 34 19 34 8 0 11 -7 8 -20z
m-11 -72 c-6 -6 -15 -9 -18 -5 -4 3 -4 14 0 23 5 13 9 15 18 6 9 -9 9 -15 0
-24z m-1522 -348 c0 -11 -4 -20 -9 -20 -11 0 -22 26 -14 34 12 12 23 5 23 -14z"/>
<path d="M3441 7557 c-6 -35 -11 -71 -11 -81 0 -9 -7 -33 -17 -54 -35 -78 -42
-106 -32 -118 12 -15 -13 -82 -34 -90 -11 -4 -14 -19 -11 -54 3 -41 0 -52 -16
-60 -12 -7 -21 -7 -25 0 -10 16 -25 12 -25 -7 0 -9 8 -49 17 -87 l17 -71 31
34 31 33 30 -30 30 -30 18 154 c10 85 19 204 20 264 1 72 5 113 14 122 19 19
15 86 -7 114 l-19 24 -11 -63z m-121 -492 c10 -12 10 -15 -4 -15 -9 0 -16 7
-16 15 0 8 2 15 4 15 2 0 9 -7 16 -15z"/>
<path d="M3840 7560 c0 -5 9 -10 20 -10 11 0 20 5 20 10 0 6 -9 10 -20 10 -11
0 -20 -4 -20 -10z"/>
<path d="M4133 7554 c-8 -22 15 -44 26 -25 10 16 4 41 -10 41 -5 0 -12 -7 -16
-16z"/>
<path d="M0 7471 c0 -42 26 -51 139 -51 67 0 96 -5 126 -20 27 -14 42 -17 51
-9 44 37 193 29 243 -14 29 -24 31 -24 203 -21 95 2 180 4 188 5 8 1 39 1 68
1 38 -2 52 -6 52 -17 0 -7 6 -18 13 -22 7 -4 23 -25 37 -45 15 -22 35 -39 50
-41 24 -4 24 -4 3 -12 -11 -4 -23 -14 -25 -23 -5 -20 -2 -253 14 -957 7 -286
13 -556 14 -600 0 -44 7 -147 13 -230 7 -82 14 -226 17 -320 11 -323 11 -317
-11 -347 -25 -34 -49 -35 -89 -5 -28 21 -59 33 -106 40 -10 1 -15 -6 -15 -23
0 -19 -9 -29 -39 -43 -39 -19 -40 -19 -55 1 -15 19 -22 20 -108 12 -51 -5
-129 -14 -175 -20 -104 -13 -203 -13 -247 0 -36 10 -55 5 -32 -9 16 -10 110
-23 196 -27 107 -5 435 -14 660 -19 121 -3 247 -10 280 -15 92 -14 299 -12
321 4 16 12 17 18 4 57 -16 52 -41 576 -28 601 4 9 8 28 8 43 l0 25 -82 -5
c-109 -8 -128 -13 -128 -30 0 -11 11 -15 36 -15 21 0 49 -9 66 -21 l29 -21 -3
-259 c-3 -171 -8 -263 -15 -270 -7 -7 -53 -10 -125 -10 -62 1 -131 2 -152 2
-72 -1 -105 55 -125 214 -12 92 -19 714 -8 731 3 6 2 38 -4 70 -14 81 -19 346
-7 361 6 7 6 19 -1 32 -7 13 -10 105 -7 268 2 136 -1 273 -6 303 -5 30 -15
123 -23 205 -8 83 -18 173 -24 200 -7 40 -6 53 5 66 8 8 14 20 14 25 0 5 11
20 25 32 21 20 31 23 63 17 22 -3 95 -7 163 -7 108 -1 129 -4 170 -24 l46 -24
6 -62 c3 -35 4 -92 2 -128 -4 -69 -4 -110 -3 -503 l1 -248 -28 -29 -27 -29 55
-35 c31 -20 60 -36 65 -36 5 0 17 9 27 20 17 19 18 27 7 93 -8 45 -14 253 -18
553 l-5 481 24 29 24 28 13 -23 c10 -19 14 -21 21 -10 28 45 -7 84 -60 68 -26
-8 -107 -21 -246 -39 -98 -12 -192 -3 -210 22 -11 17 -31 21 -119 28 -58 5
-113 13 -123 18 -10 6 -110 17 -223 26 -113 9 -243 21 -290 27 -47 6 -175 15
-285 19 -110 5 -219 12 -242 16 -43 7 -43 7 -43 -25z"/>
<path d="M7297 7493 c-11 -10 -8 -93 3 -93 17 0 30 38 24 69 -6 31 -14 37 -27
24z"/>
<path d="M3172 7366 c4 -45 11 -63 42 -100 26 -32 45 -46 62 -46 33 0 30 12
-11 51 -19 19 -35 39 -35 45 0 7 -7 25 -14 41 -8 15 -17 36 -20 46 -3 9 -11
17 -17 17 -8 0 -10 -17 -7 -54z"/>
<path d="M1945 7369 c-4 -12 -4 -40 -1 -62 7 -51 21 -1599 18 -1962 -3 -331
-8 -440 -20 -473 -6 -15 -15 -57 -21 -93 -20 -120 -11 -179 28 -179 22 0 36
52 21 80 -11 21 -12 116 -1 143 4 10 25 26 46 36 l40 17 -3 654 c-2 359 -5
657 -8 661 -2 5 -7 117 -10 251 -3 134 -6 257 -7 273 0 17 1 168 3 337 3 333
3 338 -51 338 -19 0 -30 -6 -34 -21z"/>
<path d="M3683 7323 c-29 -29 -53 -59 -53 -68 0 -21 48 -19 102 5 49 21 213
49 295 49 29 0 60 4 68 8 13 8 13 12 -5 31 -25 26 -16 25 -205 27 l-150 1 -52
-53z"/>
<path d="M312 7309 c2 -7 20 -18 39 -25 40 -14 139 -18 139 -5 0 12 -37 21
-93 21 -27 0 -58 5 -69 11 -16 8 -19 8 -16 -2z"/>
<path d="M941 7282 c-5 -10 -6 -24 -1 -33 5 -9 9 -78 9 -155 0 -76 0 -146 1
-154 2 -159 12 -590 15 -700 3 -80 7 -221 10 -315 5 -183 18 -375 29 -415 4
-14 9 -54 13 -90 3 -36 9 -72 14 -81 4 -9 4 -31 -1 -50 -13 -47 0 -100 27
-110 17 -6 23 -3 33 21 10 24 9 38 -2 72 -9 25 -11 53 -7 68 16 54 10 98 -18
130 -24 29 -27 41 -30 129 -1 53 -8 193 -14 311 -6 118 -13 260 -15 315 -3 55
-7 156 -10 225 -6 124 -9 264 -6 350 3 97 3 248 1 300 -5 99 -1 129 20 159 12
16 21 32 21 35 0 3 -18 6 -40 6 -27 0 -42 -5 -49 -18z"/>
<path d="M4562 7246 c-24 -19 -53 -50 -66 -68 -12 -18 -29 -32 -38 -30 -19 3
-32 -27 -22 -52 8 -22 29 -20 52 4 15 16 36 20 132 26 127 6 173 18 168 43 -2
9 -10 17 -18 18 -66 8 -90 15 -84 24 3 6 23 9 44 8 26 -2 45 3 58 14 22 20 48
14 63 -14 11 -22 4 -39 -17 -39 -8 0 -14 -4 -14 -10 0 -5 6 -10 14 -10 8 0 18
5 21 10 3 6 21 10 39 10 40 0 69 20 65 44 -8 36 -83 55 -224 55 l-130 1 -43
-34z m88 -45 c14 -34 7 -51 -20 -51 -49 0 -61 20 -34 58 21 30 39 28 54 -7z"/>
<path d="M3897 7205 c-46 -8 -109 -28 -153 -49 -69 -33 -75 -38 -72 -63 2 -23
7 -27 28 -25 14 2 54 4 90 3 l65 0 -24 18 c-30 23 -22 54 11 49 18 -2 23 -9
23 -31 -1 -35 21 -41 118 -33 39 4 94 8 121 9 l49 2 16 -42 c8 -24 20 -43 26
-43 19 0 58 94 50 120 -13 40 -47 90 -61 90 -17 0 -18 -22 -3 -37 7 -7 9 -20
5 -29 -6 -16 -10 -14 -34 13 -56 63 -107 73 -255 48z m161 -44 c8 -5 12 -21
10 -37 -2 -21 -9 -30 -26 -32 -28 -4 -53 14 -46 34 2 8 6 21 9 29 5 16 32 20
53 6z m-108 -26 c-9 -11 -17 -12 -31 -4 -27 14 -24 19 12 19 27 0 30 -2 19
-15z"/>
<path d="M6107 7147 c-11 -28 -17 -213 -9 -247 l9 -35 7 30 c4 17 11 44 16 61
11 34 13 163 4 188 -7 20 -20 21 -27 3z"/>
<path d="M5370 7117 c0 -18 5 -38 12 -45 7 -7 13 -44 14 -83 3 -106 23 -113
23 -8 0 63 -5 95 -21 127 -11 23 -22 42 -24 42 -2 0 -4 -15 -4 -33z"/>
<path d="M224 7075 c-3 -14 -3 -43 1 -63 4 -20 8 -125 9 -232 5 -478 28 -1075
56 -1430 13 -165 13 -432 0 -466 -17 -43 -1 -51 118 -58 59 -4 147 -17 196
-28 87 -20 90 -20 103 -2 9 11 12 29 8 44 -4 14 -10 142 -15 285 -5 143 -11
292 -14 330 -4 39 -9 172 -11 298 -2 125 -6 231 -9 236 -5 8 -17 577 -20 942
l-1 144 -90 6 c-49 4 -143 9 -207 13 l-117 7 -7 -26z m263 -87 c50 -11 51 -13
57 -52 4 -23 7 -156 7 -296 0 -140 2 -280 3 -310 2 -30 -4 -82 -11 -116 l-15
-60 36 -36 36 -36 2 -169 c1 -92 1 -197 -1 -232 -2 -45 3 -76 15 -102 14 -32
15 -43 4 -68 -6 -16 -20 -37 -31 -47 -22 -20 -24 -54 -5 -92 12 -25 25 -178
31 -376 l2 -68 -33 -14 c-43 -18 -105 -18 -148 0 -26 11 -35 22 -44 57 -7 24
-12 53 -12 64 1 11 -1 110 -4 220 -5 189 -8 269 -21 545 -3 63 -8 217 -10 342
-2 125 -6 231 -8 235 -3 5 -5 61 -6 126 -1 79 -6 130 -16 154 -8 19 -14 44
-14 56 0 12 0 80 0 152 -1 71 2 132 7 136 12 12 55 15 92 7 19 -5 58 -14 87
-20z"/>
<path d="M476 5882 c-4 -13 -5 -26 -2 -29 10 -11 18 4 14 29 l-4 23 -8 -23z"/>
<path d="M474 5634 c3 -9 6 -18 6 -20 0 -2 5 -4 10 -4 6 0 10 9 10 20 0 12 -7
20 -16 20 -11 0 -14 -5 -10 -16z"/>
<path d="M4590 7030 c0 -5 10 -10 23 -10 18 0 19 2 7 10 -19 13 -30 13 -30 0z"/>
<path d="M3790 6970 c8 -5 35 -9 60 -9 l45 1 -40 9 c-22 4 -49 8 -60 8 -17 1
-17 -1 -5 -9z"/>
<path d="M8905 6960 c-4 -6 -18 -9 -33 -8 -23 3 -27 -1 -34 -37 -11 -64 -9
-253 3 -261 27 -16 52 60 53 166 1 49 7 74 24 101 12 20 22 39 22 43 0 10 -28
7 -35 -4z"/>
<path d="M3389 6903 c-40 -46 -70 -93 -64 -102 7 -12 48 -1 58 16 4 7 17 13
27 13 17 0 20 7 20 50 0 28 -4 50 -8 50 -5 0 -19 -12 -33 -27z"/>
<path d="M4138 6893 c-9 -10 -19 -28 -22 -40 -4 -11 -22 -41 -41 -65 -24 -29
-35 -54 -35 -75 0 -45 14 -41 42 9 13 23 39 53 58 66 41 27 45 34 54 85 6 34
5 37 -17 37 -13 0 -31 -8 -39 -17z"/>
<path d="M3266 6853 c-8 -51 -8 -148 1 -139 16 16 28 75 25 124 -5 61 -17 68
-26 15z"/>
<path d="M4490 6874 c0 -30 20 -52 53 -58 23 -4 38 -15 45 -31 14 -30 32 -33
32 -5 0 12 -20 41 -44 65 -44 45 -86 59 -86 29z"/>
<path d="M5937 6884 c-9 -10 4 -34 19 -34 8 0 14 9 14 20 0 19 -19 27 -33 14z"/>
<path d="M3424 6765 c-3 -8 -3 -19 1 -25 13 -21 -15 -39 -51 -33 -20 3 -34 1
-34 -5 0 -18 43 -127 57 -143 11 -14 11 -18 -2 -29 -9 -7 -15 -23 -13 -34 2
-16 10 -21 33 -21 l30 0 0 96 c0 62 5 105 14 122 7 14 11 36 7 50 -7 29 -34
43 -42 22z"/>
<path d="M6091 6754 c-13 -29 -15 -81 -3 -88 5 -3 39 0 77 6 51 9 72 8 86 0
24 -15 29 -15 29 2 0 13 -66 46 -94 46 -7 0 -21 9 -32 21 -34 37 -50 41 -63
13z"/>
<path d="M5470 6738 c0 -7 -3 -23 -6 -35 -11 -42 12 -46 311 -57 50 -2 113 -6
142 -9 62 -8 78 6 70 59 -8 46 -13 51 -37 36 -11 -7 -45 -12 -75 -12 -40 0
-57 -4 -61 -15 -6 -15 -34 -21 -34 -7 0 14 -73 31 -92 21 -10 -6 -23 -7 -28
-4 -5 3 -40 6 -79 7 -49 1 -72 5 -75 14 -7 17 -36 18 -36 2z"/>
<path d="M3464 6686 c-4 -10 -2 -35 5 -55 6 -21 11 -50 11 -63 0 -14 7 -31 15
-38 8 -7 15 -21 15 -31 0 -28 29 -23 36 6 4 18 -4 51 -26 103 -37 89 -47 102
-56 78z"/>
<path d="M4440 6689 c0 -11 -105 -119 -116 -119 -3 0 -18 9 -33 19 -15 11 -42
21 -61 23 -48 4 -48 24 0 32 32 5 41 10 38 24 -5 21 -67 21 -83 -1 -5 -7 -23
-17 -39 -21 -26 -6 -27 -8 -12 -25 22 -24 21 -28 -16 -62 -23 -21 -43 -29 -68
-29 -51 0 -112 -54 -133 -116 l-15 -47 29 -28 c16 -15 29 -36 29 -47 0 -34 19
-35 48 -5 15 16 41 34 57 40 57 22 230 40 447 49 179 7 201 1 263 -67 19 -21
37 -39 40 -39 19 0 -13 110 -34 118 -9 3 -26 14 -39 26 -21 19 -35 21 -135 20
-116 -1 -269 -19 -296 -34 -9 -5 -26 -3 -42 5 -23 12 -39 11 -124 -6 -109 -22
-115 -24 -115 -43 0 -8 -6 -18 -13 -25 -16 -13 -37 4 -37 29 0 19 65 82 100
97 39 17 158 36 235 37 39 1 80 7 93 14 13 8 52 12 96 11 40 -1 78 1 83 4 13
8 146 -49 189 -80 17 -12 34 -20 38 -16 13 13 5 82 -11 102 -20 25 -129 51
-178 44 -24 -4 -36 2 -60 27 -16 17 -30 41 -30 53 0 16 -7 23 -27 25 -21 2
-28 -1 -28 -13 0 -9 -5 -13 -10 -10 -8 5 -8 11 -1 19 6 7 8 16 4 19 -10 11
-33 8 -33 -4z"/>
<path d="M3230 6621 c0 -28 5 -51 10 -51 6 0 10 20 10 44 0 25 -4 48 -10 51
-6 4 -10 -13 -10 -44z"/>
<path d="M7980 6596 c0 -22 3 -27 11 -19 8 8 8 16 0 30 -9 16 -10 14 -11 -11z"/>
<path d="M8836 6585 c-13 -20 -16 -44 -14 -113 3 -86 3 -87 28 -84 35 4 42 20
36 84 -3 33 -1 60 4 63 14 9 12 17 -14 48 l-23 28 -17 -26z"/>
<path d="M3250 6505 c0 -29 7 -43 37 -70 50 -46 37 -57 -66 -59 -44 -1 -83 -5
-87 -8 -14 -15 77 -40 166 -47 114 -8 190 -3 190 13 0 12 -45 36 -69 36 -25 0
-81 23 -81 34 0 6 -12 20 -26 31 -17 14 -29 35 -33 60 -8 51 -31 59 -31 10z"/>
<path d="M3540 6462 c0 -20 55 -57 70 -47 16 10 -28 65 -51 65 -12 0 -19 -7
-19 -18z"/>
<path d="M3688 6368 c-4 -23 1 -42 16 -63 11 -16 22 -32 24 -34 1 -3 10 3 19
12 12 11 13 20 6 29 -6 7 -13 26 -17 43 -7 27 -21 44 -37 45 -4 0 -9 -15 -11
-32z"/>
<path d="M5005 6391 c-6 -11 9 -23 19 -14 9 9 7 23 -3 23 -6 0 -12 -4 -16 -9z"/>
<path d="M5925 6371 c-7 -12 12 -24 25 -16 11 7 4 25 -10 25 -5 0 -11 -4 -15
-9z"/>
<path d="M7260 6335 c0 -25 4 -35 16 -35 11 0 14 5 10 16 -3 9 -6 24 -6 35 0
10 -4 19 -10 19 -5 0 -10 -16 -10 -35z"/>
<path d="M8820 6329 c-7 -12 -11 -63 -11 -117 1 -54 -4 -169 -10 -257 -6 -88
-10 -200 -10 -250 1 -49 -4 -175 -12 -280 -8 -104 -14 -206 -15 -225 -1 -287
-12 -625 -21 -660 -6 -25 -13 -135 -16 -245 -6 -213 -9 -269 -22 -548 -13
-248 -6 -241 -208 -218 -119 13 -278 15 -512 6 -167 -7 -195 -10 -209 -26 -24
-26 -11 -46 33 -52 54 -7 835 -7 1031 0 l162 6 0 54 0 53 -93 0 c-78 0 -97 3
-110 18 -20 22 -21 48 -3 81 12 21 12 32 -1 74 -8 29 -12 61 -7 76 12 45 3
212 -13 253 -14 35 -14 44 0 96 18 64 21 213 7 357 -11 105 -6 133 24 137 31
4 35 59 5 87 -31 28 -34 103 -6 149 16 28 19 44 13 97 -4 39 -2 83 5 110 9 34
9 53 1 70 -8 18 -8 33 0 56 8 23 7 40 -2 69 -10 31 -10 48 0 87 23 90 25 116
21 198 -1 22 0 54 3 70 15 90 18 153 7 159 -16 10 -14 165 3 195 11 20 10 31
-6 73 -10 27 -16 54 -12 60 4 5 8 31 10 57 2 25 9 59 15 74 9 21 9 34 1 52
-14 31 -28 32 -42 4z"/>
<path d="M3032 6278 c-8 -10 -11 -72 -10 -199 1 -101 0 -242 -1 -314 -2 -71
-2 -134 0 -140 1 -5 -3 -22 -8 -36 -13 -31 5 -178 25 -202 9 -10 10 -17 2 -22
-15 -9 -12 -35 4 -35 9 0 16 18 21 53 10 65 16 707 9 804 -7 81 -22 114 -42
91z"/>
<path d="M3777 6260 c6 -24 19 -34 34 -25 7 5 4 14 -7 26 -22 25 -33 24 -27
-1z"/>
<path d="M4530 6263 c-14 -2 -36 -9 -49 -16 -27 -13 -223 -17 -306 -5 -34 5
-43 4 -27 -2 12 -5 22 -15 22 -22 0 -7 17 -24 37 -38 34 -23 45 -25 137 -23
102 3 183 22 211 50 15 15 21 64 8 62 -5 -1 -19 -4 -33 -6z"/>
<path d="M4826 6244 c-3 -8 -18 -14 -34 -14 -45 0 -82 -50 -47 -64 8 -3 15
-14 15 -25 0 -11 4 -22 8 -25 15 -9 57 8 95 40 l37 30 -34 36 c-25 27 -36 33
-40 22z"/>
<path d="M5635 6232 c-58 -32 -73 -65 -28 -62 57 4 55 6 51 -87 -4 -105 -21
-147 -61 -151 -32 -4 -32 -25 1 -30 11 -2 26 -10 32 -18 18 -20 66 -17 138 8
68 25 88 55 28 44 -49 -9 -60 15 -57 128 2 90 10 112 39 101 8 -3 25 -2 38 1
20 5 24 12 22 33 -3 22 -9 27 -46 32 -23 3 -48 11 -54 17 -19 19 -49 14 -103
-16z"/>
<path d="M3746 6205 c-6 -17 2 -45 14 -45 15 0 22 19 15 40 -8 24 -21 26 -29
5z"/>
<path d="M3930 6165 c-17 -27 -19 -39 -11 -49 7 -8 9 -25 6 -38 -5 -20 0 -26
32 -41 37 -17 38 -17 52 3 13 19 14 19 27 3 12 -16 15 -16 24 -3 15 23 6 35
-26 35 -26 0 -29 3 -32 39 -3 38 -27 86 -42 86 -5 0 -18 -16 -30 -35z"/>
<path d="M1437 6085 c-3 -16 -5 -154 -4 -306 2 -220 5 -279 16 -293 9 -11 18
-13 24 -7 12 12 15 311 3 329 -5 8 -10 55 -13 105 -2 51 -7 117 -12 147 -6 49
-8 52 -14 25z"/>
<path d="M5200 6080 c-6 -11 -11 -35 -11 -52 0 -18 -3 -68 -5 -110 -5 -65 -3
-78 10 -78 16 0 21 27 31 167 5 83 -4 112 -25 73z"/>
<path d="M5920 6084 c0 -9 5 -14 12 -12 18 6 21 28 4 28 -9 0 -16 -7 -16 -16z"/>
<path d="M7256 6019 c-6 -62 6 -113 17 -73 7 21 2 122 -5 130 -3 2 -8 -23 -12
-57z"/>
<path d="M3425 5987 c-16 -6 -31 -12 -33 -13 -2 -1 6 -21 18 -44 23 -45 22
-101 -2 -164 -10 -25 -9 -31 11 -47 28 -23 49 -24 72 -3 15 14 17 28 12 98 -5
74 -4 83 16 100 11 11 21 24 21 30 0 9 -73 58 -82 55 -2 -1 -16 -6 -33 -12z"/>
<path d="M1733 5940 c-28 -11 -31 -56 -7 -101 14 -28 14 -34 0 -70 -22 -54 -8
-81 37 -77 27 3 34 9 45 43 11 34 10 53 -4 127 -18 93 -22 98 -71 78z"/>
<path d="M4074 5936 c-10 -27 2 -43 14 -19 8 14 9 24 2 28 -6 3 -13 -1 -16 -9z"/>
<path d="M7958 5904 c-5 -4 -8 -28 -8 -53 0 -32 3 -42 11 -34 5 5 9 29 7 53
-2 23 -6 38 -10 34z"/>
<path d="M7255 5829 c-10 -25 -1 -189 10 -189 13 0 19 165 6 188 -9 15 -10 15
-16 1z"/>
<path d="M5165 5770 c-9 -14 14 -158 31 -198 20 -46 18 -215 -3 -267 -8 -22
-18 -57 -20 -77 -5 -34 -3 -38 16 -38 35 0 35 -24 -3 -119 -20 -50 -36 -109
-36 -130 0 -26 -10 -57 -29 -89 -20 -35 -31 -68 -34 -108 -2 -33 -16 -90 -30
-129 -15 -38 -26 -79 -27 -90 0 -12 -4 -25 -9 -30 -10 -10 -23 -56 -42 -144
-5 -25 -22 -72 -38 -105 -61 -131 -91 -211 -91 -247 0 -12 -6 -33 -14 -47 -27
-52 -76 -194 -76 -220 0 -15 -5 -43 -11 -62 -11 -36 -27 -166 -36 -282 -4 -54
-1 -72 14 -92 23 -32 33 -33 33 -2 0 14 5 37 11 53 6 15 12 44 14 63 1 19 8
63 15 97 9 46 15 60 26 56 9 -3 14 1 14 12 0 11 -5 15 -15 11 -21 -8 -19 17
10 99 14 39 25 78 25 88 0 9 8 36 18 60 11 23 27 69 37 102 29 92 66 177 93
209 22 27 22 31 8 42 -14 10 -15 13 -1 24 8 7 15 17 15 22 0 10 23 67 41 100
14 27 11 48 -6 42 -8 -4 -15 -1 -15 5 0 6 4 11 8 11 11 0 32 45 32 69 0 10 7
33 16 50 11 23 15 46 11 75 -6 40 -4 43 25 54 23 9 29 15 23 29 -4 10 -9 33
-12 50 -7 40 15 53 49 29 33 -23 37 -20 35 26 -1 30 -6 42 -19 46 -22 5 -23
28 -2 36 10 4 14 12 10 22 -3 8 -1 24 5 35 5 11 12 37 14 57 2 20 9 75 15 122
6 47 8 99 5 116 -3 17 1 46 9 65 16 39 41 251 33 274 -4 8 -3 15 2 15 5 0 11
-10 15 -23 7 -31 52 -55 68 -39 19 19 -36 113 -121 203 -70 76 -93 91 -106 69z"/>
<path d="M7947 5773 c-4 -3 -7 -30 -7 -60 0 -47 2 -53 21 -53 19 0 21 4 15 38
-3 20 -6 47 -6 60 0 22 -10 28 -23 15z"/>
<path d="M3619 5696 c-56 -42 -94 -97 -110 -157 l-13 -47 39 -41 c28 -29 42
-38 51 -30 17 14 24 0 31 -63 3 -29 10 -59 16 -66 5 -7 14 -53 18 -103 5 -50
13 -97 19 -104 6 -7 8 -20 4 -28 -3 -9 1 -31 10 -48 9 -18 16 -40 16 -49 0
-10 7 -23 15 -30 8 -7 20 -30 25 -51 6 -21 22 -51 35 -68 30 -35 55 -101 55
-145 0 -25 6 -34 31 -45 30 -13 31 -15 24 -57 -6 -42 -5 -44 18 -44 28 0 58
-30 83 -85 10 -22 24 -44 31 -48 7 -4 13 -13 13 -18 0 -10 61 -91 86 -114 27
-26 64 -86 59 -95 -4 -6 -1 -17 5 -25 19 -22 4 -48 -22 -39 -12 3 -26 10 -32
15 -50 42 -61 49 -72 49 -7 0 -23 13 -35 29 -11 16 -33 35 -47 42 -14 8 -37
24 -50 36 -29 27 -108 66 -123 61 -11 -4 97 -88 112 -88 5 0 28 -17 50 -37 23
-21 57 -53 76 -70 20 -18 40 -33 46 -33 22 0 227 -229 227 -255 0 -6 14 -24
30 -38 17 -15 30 -32 30 -37 0 -18 43 -70 57 -70 8 0 13 -13 13 -34 0 -18 7
-39 15 -46 8 -7 15 -28 15 -47 0 -27 3 -34 15 -29 10 4 17 -3 21 -22 4 -15 12
-34 18 -42 7 -8 22 -58 35 -110 12 -52 24 -101 27 -107 2 -10 9 -10 28 -2 34
16 37 29 19 80 -8 24 -19 69 -24 99 -11 58 -15 75 -49 180 -31 93 -64 159
-130 258 -32 48 -72 114 -90 147 -36 68 -71 128 -79 135 -4 3 -17 28 -30 55
-13 28 -49 86 -80 130 -30 44 -81 119 -113 166 -31 47 -64 92 -73 99 -8 7 -15
24 -15 39 0 32 -29 91 -75 155 -19 27 -38 60 -41 75 -3 14 -14 42 -24 61 -10
19 -33 64 -52 100 -18 36 -39 71 -45 78 -7 7 -13 27 -13 43 0 22 5 29 20 29
11 0 20 -5 20 -12 0 -13 7 -21 82 -99 56 -58 169 -139 193 -139 8 0 16 -4 20
-9 3 -5 18 -12 34 -16 16 -3 35 -13 42 -21 6 -8 23 -14 38 -14 15 0 32 -5 38
-11 29 -29 315 -42 453 -21 81 12 110 22 239 85 80 40 121 68 182 125 44 41
79 80 79 88 0 19 -13 18 -41 -4 -13 -11 -36 -22 -51 -26 -19 -4 -28 -13 -28
-27 0 -15 -5 -19 -19 -14 -13 4 -32 -7 -65 -40 -26 -25 -52 -45 -57 -45 -6 0
-22 -9 -36 -20 -17 -13 -33 -18 -50 -14 -16 4 -28 1 -36 -9 -7 -9 -41 -25 -77
-37 -94 -29 -340 -29 -423 0 -31 11 -62 20 -69 20 -7 0 -33 16 -57 35 -31 25
-47 32 -56 25 -14 -11 -114 30 -135 55 -7 8 -17 15 -24 15 -18 0 -106 64 -112
82 -3 9 -18 31 -34 48 -60 64 -99 225 -81 338 19 125 12 202 -20 202 -3 0 -26
-15 -50 -34z"/>
<path d="M5556 5704 c-21 -20 -20 -58 0 -79 31 -31 54 13 38 73 -7 26 -17 28
-38 6z"/>
<path d="M5750 5701 c-14 -27 -13 -74 3 -96 13 -17 15 -17 35 3 22 22 28 64
16 96 -8 22 -41 20 -54 -3z"/>
<path d="M5959 5674 c-21 -26 1 -50 43 -46 22 2 39 -2 48 -12 17 -22 37 -20
50 4 23 43 -23 83 -57 49 -8 -8 -17 -7 -34 5 -29 20 -33 20 -50 0z"/>
<path d="M4770 5645 c0 -3 9 -14 21 -26 14 -14 24 -18 31 -11 7 7 3 12 -11 17
-12 3 -21 11 -21 16 0 5 -4 9 -10 9 -5 0 -10 -2 -10 -5z"/>
<path d="M8169 5635 c-18 -10 -37 -42 -68 -114 -24 -56 -48 -104 -53 -107 -20
-13 16 -34 58 -34 38 0 44 -3 50 -24 6 -26 56 -56 92 -56 25 0 38 16 47 58 8
40 46 54 75 27 11 -10 20 -24 20 -30 0 -22 29 -40 42 -27 9 9 3 30 -24 84 -20
40 -44 98 -53 128 -18 62 -30 81 -62 98 -29 16 -92 14 -124 -3z m97 -30 c24
-24 25 -30 21 -111 -4 -92 -16 -116 -69 -128 -21 -5 -31 -1 -48 21 -19 25 -21
35 -15 98 8 78 17 102 49 127 28 23 32 22 62 -7z"/>
<path d="M7943 5595 c4 -38 17 -60 17 -29 0 10 3 29 6 42 5 16 2 22 -10 22
-13 0 -16 -8 -13 -35z"/>
<path d="M1710 5579 c0 -24 23 -21 28 4 2 10 -3 17 -12 17 -10 0 -16 -9 -16
-21z"/>
<path d="M1842 5540 c-6 -11 -12 -30 -12 -42 0 -42 22 -148 31 -148 5 0 9 47
9 105 0 58 -3 105 -8 105 -4 0 -13 -9 -20 -20z"/>
<path d="M5430 5550 c0 -5 6 -10 13 -10 7 0 18 -9 25 -20 7 -11 19 -20 27 -20
15 0 21 -25 8 -33 -5 -2 -3 -3 3 -1 6 1 19 -7 29 -18 20 -24 7 -38 -31 -30
-18 3 -24 0 -24 -13 0 -13 6 -16 25 -13 14 3 30 -1 36 -8 6 -8 18 -14 25 -14
8 0 14 -4 14 -9 0 -5 9 -11 20 -14 11 -3 20 -14 20 -25 0 -10 9 -27 20 -37 11
-10 20 -24 20 -32 0 -23 19 -14 26 12 4 14 9 24 13 23 3 -2 18 -10 34 -17 15
-8 27 -18 27 -23 0 -4 9 -8 19 -8 11 0 27 -10 35 -22 14 -20 14 -24 -1 -40
-13 -14 -13 -20 -3 -33 7 -8 10 -27 8 -43 -5 -23 4 -35 64 -89 64 -58 108 -79
108 -53 0 6 -22 41 -50 77 -27 36 -50 72 -50 79 0 8 -11 14 -25 14 -30 0 -32
11 -7 33 30 27 59 20 129 -33 36 -27 74 -50 84 -50 10 0 23 -9 28 -19 6 -10
31 -31 56 -45 25 -15 52 -38 61 -51 9 -14 25 -25 35 -25 20 0 25 11 12 24 -5
4 -8 20 -8 34 0 19 -6 28 -20 30 -28 6 -114 64 -159 108 -37 36 -155 104 -181
104 -7 0 -15 4 -17 8 -4 11 -73 52 -87 52 -33 0 -122 54 -137 83 -27 51 -116
138 -162 158 -49 22 -62 23 -62 9z"/>
<path d="M4735 5531 c-3 -5 -1 -12 4 -15 12 -8 41 3 41 15 0 12 -37 12 -45 0z"/>
<path d="M3388 5485 c-40 -27 -74 -70 -110 -140 -49 -95 -63 -115 -81 -115
-25 0 -102 -38 -123 -61 -9 -10 -22 -19 -27 -19 -12 0 -79 -76 -89 -100 -4
-12 -2 -17 9 -16 15 1 27 -13 37 -46 4 -12 16 -18 36 -18 35 0 37 -11 11 -48
-10 -15 -21 -42 -24 -59 l-6 -33 46 0 46 0 -6 33 c-3 18 1 50 9 72 7 22 14 58
14 80 0 42 34 122 69 165 18 21 22 23 31 10 13 -20 13 -77 0 -85 -18 -11 -11
-45 10 -45 14 0 21 9 26 38 4 20 18 59 31 86 17 32 23 58 19 77 -3 18 1 35 14
52 11 14 20 30 20 35 0 5 19 36 43 68 24 33 46 64 50 70 14 23 -21 22 -55 -1z"/>
<path d="M7948 5374 c-2 -5 -1 -25 2 -44 6 -35 7 -35 14 -8 7 25 -6 70 -16 52z"/>
<path d="M8001 5351 c-11 -7 -11 -13 0 -32 l12 -24 10 23 c12 26 -1 46 -22 33z"/>
<path d="M8420 5282 c0 -26 -42 -103 -63 -116 -12 -8 -26 -7 -49 2 -40 15 -51
3 -45 -49 7 -55 28 -88 70 -112 45 -26 56 -18 68 50 5 26 13 73 19 103 19 94
23 140 11 140 -6 0 -11 -8 -11 -18z"/>
<path d="M6070 5275 c-12 -14 -12 -18 1 -26 18 -11 106 -12 113 0 18 29 -91
54 -114 26z"/>
<path d="M5609 5228 c-1 -2 -3 -39 -4 -83 -3 -62 -7 -82 -21 -92 -17 -12 -17
-13 2 -13 10 1 37 17 59 36 37 33 38 35 17 41 -22 5 -30 27 -13 37 16 11 19
46 4 61 -12 13 -41 21 -44 13z"/>
<path d="M1055 5126 c-9 -13 -18 -40 -22 -59 -5 -32 -3 -34 21 -34 34 0 50 28
42 73 -9 44 -21 50 -41 20z"/>
<path d="M8030 5136 c0 -8 5 -18 11 -22 14 -8 4 -120 -12 -140 -6 -7 -9 -30
-7 -51 2 -30 7 -38 23 -38 17 0 22 10 30 62 7 47 16 67 33 78 26 19 30 66 7
85 -8 7 -15 19 -15 26 0 9 -12 14 -35 14 -24 0 -35 -5 -35 -14z"/>
<path d="M6610 5100 c0 -46 17 -59 56 -42 33 16 32 55 -1 70 -45 21 -55 16
-55 -28z"/>
<path d="M5690 5115 c0 -10 10 -15 27 -15 26 0 26 1 7 15 -25 19 -34 19 -34 0z"/>
<path d="M5410 5078 c0 -2 6 -23 14 -48 10 -33 20 -47 39 -54 38 -14 45 0 15
32 -14 15 -28 36 -30 47 -2 11 -11 21 -21 23 -9 2 -17 2 -17 0z"/>
<path d="M7240 5038 c0 -12 4 -30 10 -38 8 -12 10 -12 15 2 9 23 3 50 -12 56
-8 2 -13 -5 -13 -20z"/>
<path d="M6354 5035 c11 -8 25 -15 31 -15 7 0 27 -15 46 -33 19 -18 61 -43 94
-56 33 -13 64 -28 70 -33 5 -4 30 -8 56 -8 33 0 57 -7 83 -25 20 -14 41 -25
45 -25 5 0 21 -19 37 -42 15 -24 49 -65 75 -93 49 -53 64 -81 49 -90 -13 -8
-12 -18 4 -40 12 -17 16 -18 32 -5 15 13 18 13 22 1 3 -8 20 -30 38 -48 19
-19 34 -40 34 -47 0 -7 14 -30 30 -51 17 -21 30 -46 30 -55 0 -10 6 -23 14
-29 8 -7 18 -37 22 -67 4 -38 12 -58 25 -65 11 -5 19 -17 19 -27 0 -9 11 -29
25 -44 14 -15 25 -32 25 -38 0 -15 38 -50 51 -47 16 3 86 -131 120 -230 16
-48 38 -106 49 -128 49 -103 69 -172 75 -270 4 -55 14 -113 22 -130 27 -53 52
-169 57 -256 1 -26 12 -61 24 -81 16 -25 22 -51 22 -90 0 -30 3 -57 6 -61 3
-3 18 -1 33 4 56 22 140 -35 91 -61 -9 -5 -20 -7 -23 -4 -3 3 -15 0 -27 -6
l-23 -12 27 -22 c24 -19 27 -29 30 -106 3 -47 8 -95 11 -106 5 -15 0 -28 -16
-43 -20 -18 -30 -20 -73 -15 -28 4 -59 11 -69 16 -11 6 -30 5 -50 -1 -18 -5
-45 -13 -62 -18 -16 -5 -30 -15 -30 -23 0 -12 18 -15 93 -15 52 0 96 3 99 7 9
15 31 8 36 -12 7 -29 27 -25 27 6 0 16 5 24 13 22 19 -7 21 -40 3 -50 -24 -14
-19 -33 18 -73 36 -37 51 -91 33 -113 -8 -11 -7 -16 6 -23 10 -6 17 -22 17
-39 0 -29 -7 -34 -42 -31 -12 2 -18 -5 -18 -20 0 -32 39 -89 61 -89 10 0 19
-6 19 -14 0 -7 11 -21 25 -30 29 -19 31 -42 7 -74 -19 -25 -92 -47 -123 -37
-10 3 -33 -2 -50 -11 -25 -12 -47 -15 -91 -10 l-58 6 0 -29 c0 -36 22 -56 47
-43 10 5 42 13 71 17 31 4 56 13 59 21 6 16 49 19 58 4 3 -5 17 -10 29 -10 13
0 29 -6 35 -14 16 -19 -22 -56 -56 -56 -13 0 -41 -9 -63 -20 -22 -11 -48 -20
-58 -20 -10 0 -27 -10 -38 -22 -19 -21 -19 -21 1 -13 11 4 54 10 96 12 83 6
80 7 124 -60 27 -42 25 -61 -6 -52 -11 4 -26 2 -33 -4 -8 -7 -40 -5 -107 8
-158 32 -179 33 -185 16 -12 -31 15 -45 90 -45 73 0 116 -16 116 -44 0 -7 13
-26 30 -42 33 -33 36 -42 17 -68 -12 -17 -17 -16 -92 4 -54 14 -95 19 -125 15
-25 -3 -67 -1 -95 5 -62 14 -85 14 -121 -1 -27 -10 -27 -12 -9 -19 11 -4 52
-10 90 -14 177 -18 274 -45 310 -87 23 -28 27 -41 40 -137 7 -53 -8 -61 -68
-39 -56 20 -107 29 -107 18 0 -5 13 -12 28 -16 43 -9 118 -112 127 -173 8 -59
-5 -94 -44 -123 -36 -26 -40 -66 -16 -134 11 -30 11 -41 2 -47 -20 -13 -74 -9
-87 7 -7 8 -23 15 -36 15 -12 0 -25 4 -28 9 -8 12 -55 20 -62 10 -3 -5 1 -9 9
-9 8 0 20 -6 26 -14 6 -8 31 -19 55 -25 41 -10 113 -58 129 -87 6 -10 2 -14
-18 -14 -22 0 -24 -3 -15 -19 18 -34 13 -43 -22 -36 -18 4 -39 11 -48 15 -8 4
-31 15 -51 24 -20 10 -51 16 -70 14 l-34 -4 30 -8 c17 -4 37 -12 45 -17 8 -5
39 -21 67 -35 77 -37 115 -95 81 -121 -19 -15 -306 -34 -433 -30 -60 3 -119 1
-130 -3 -14 -5 -198 12 -211 19 -1 1 -4 20 -7 43 -3 24 -14 48 -23 55 -17 13
-17 16 0 67 18 51 18 90 2 127 -5 12 3 27 25 50 30 31 31 33 11 40 -43 16 -38
61 12 108 31 29 33 41 6 41 -28 0 -33 18 -21 71 9 43 -1 116 -25 175 -9 20
-117 123 -132 125 -77 12 -117 -2 -154 -51 -12 -17 -27 -30 -34 -30 -33 0 -23
-65 33 -225 22 -61 25 -92 29 -245 3 -96 10 -192 16 -214 10 -33 10 -39 -5
-48 -11 -6 -17 -22 -17 -47 0 -23 -8 -48 -19 -62 -16 -20 -26 -22 -77 -20 -33
1 -66 9 -75 17 -20 18 -24 18 -45 -4 -16 -15 -47 -17 -315 -19 -166 -1 -314
-6 -335 -12 -20 -6 -42 -7 -48 -4 -18 12 -148 13 -236 2 -93 -11 -198 -15
-695 -24 -181 -3 -363 -8 -403 -11 -51 -5 -77 -3 -87 6 -17 14 -132 8 -164 -9
-23 -13 -381 -29 -471 -21 -14 1 -97 -4 -185 -10 -167 -12 -247 -9 -271 11
-11 9 -19 8 -34 -6 -14 -13 -28 -16 -57 -11 -52 10 -72 10 -193 4 -58 -3 -112
-2 -120 2 -13 6 -80 -4 -216 -35 -26 -6 -34 -2 -57 25 -15 17 -27 42 -27 56 0
36 -17 29 -24 -11 -6 -31 -11 -35 -37 -35 -16 0 -44 -8 -62 -17 -24 -12 -65
-17 -160 -20 -71 -1 -133 -5 -138 -8 -8 -5 -277 -15 -474 -18 -69 -1 -113 17
-134 54 -13 24 -13 31 4 68 10 23 21 41 25 41 5 0 10 7 14 15 7 20 -37 20 -58
0 -23 -23 -39 -18 -34 10 4 21 1 25 -18 25 -20 0 -22 4 -21 48 2 40 -1 47 -17
47 -24 0 -41 42 -27 70 5 11 13 31 17 45 4 14 26 47 50 74 42 46 55 76 34 76
-5 0 -17 -12 -27 -26 -10 -14 -31 -38 -47 -52 -15 -15 -32 -38 -37 -51 -8 -19
-12 -21 -24 -11 -12 10 -18 10 -30 0 -8 -6 -19 -9 -26 -5 -14 9 -6 52 20 106
11 22 23 61 27 86 l7 45 -38 -4 c-25 -2 -40 2 -43 10 -6 18 45 81 74 92 20 8
44 44 44 66 0 2 -15 4 -32 3 -78 -1 -93 4 -98 36 -15 80 29 162 99 185 28 9
38 16 29 22 -20 12 -122 10 -135 -3 -17 -17 -61 14 -78 54 -11 28 -11 36 3 60
22 38 85 73 145 82 68 9 55 29 -24 36 -37 3 -76 13 -89 22 -46 32 -101 13
-131 -45 -27 -52 -24 -87 11 -140 25 -37 29 -50 21 -70 -13 -34 47 -157 95
-193 19 -14 34 -34 34 -43 0 -10 -18 -44 -40 -77 -22 -33 -40 -67 -40 -76 0
-9 16 -37 36 -64 l37 -47 -18 -59 c-17 -57 -18 -61 -1 -96 25 -52 107 -154
132 -164 23 -8 60 -80 84 -159 7 -25 26 -59 42 -75 15 -17 28 -40 28 -52 0
-26 24 -46 47 -39 10 3 227 9 483 12 528 8 508 8 1040 17 217 4 447 10 510 12
63 3 241 10 395 15 154 6 297 15 319 20 24 5 49 5 65 -2 15 -5 70 -7 131 -4
101 6 330 10 1000 21 173 3 353 10 400 15 47 5 265 12 485 14 220 3 401 5 403
5 1 1 -2 10 -8 20 -14 28 -14 54 5 532 5 131 -4 187 -56 341 -25 75 -24 88 4
88 34 0 103 -64 126 -115 16 -37 19 -62 16 -145 -2 -54 -7 -105 -11 -112 -4
-7 -7 -59 -5 -117 1 -60 -3 -126 -11 -154 -11 -44 -10 -55 10 -111 16 -48 19
-71 13 -97 -5 -19 -12 -53 -15 -77 -6 -37 -4 -43 15 -50 12 -5 47 -5 78 -1 59
8 548 29 741 32 l115 2 3 35 c2 19 8 40 13 46 5 6 16 35 25 64 12 40 13 59 5
82 -15 41 -14 175 0 184 8 4 9 23 4 58 -12 85 -10 94 36 135 41 36 43 41 42
92 0 35 -8 69 -23 96 -20 40 -21 83 0 83 4 0 16 12 25 27 14 20 19 52 21 130
l3 103 -37 30 -36 30 24 25 c13 14 28 25 33 25 5 0 17 10 28 23 14 17 18 39
19 94 0 39 4 74 9 77 5 3 12 18 15 32 6 22 1 33 -23 58 l-31 32 28 29 c47 50
62 79 62 120 0 34 -8 49 -55 103 -30 35 -55 72 -55 82 0 11 11 39 24 62 21 38
24 56 24 148 0 62 -6 118 -13 137 -22 54 -38 145 -40 238 -2 105 -15 137 -87
233 -51 67 -54 75 -62 165 -2 31 -12 72 -22 90 -15 29 -23 82 -40 277 -3 30
-11 69 -18 85 -32 70 -44 102 -50 132 -4 18 -12 35 -17 38 -5 4 -9 13 -9 21 0
8 -9 36 -21 62 -11 26 -24 56 -28 67 -23 53 -78 165 -103 208 -69 119 -188
346 -188 361 0 6 -16 29 -36 51 -20 22 -54 65 -77 95 -22 30 -46 60 -51 66 -6
7 -38 45 -71 85 -93 113 -164 177 -227 203 -18 8 -45 23 -59 35 -15 11 -48 25
-75 31 -27 6 -67 19 -89 30 -70 33 -129 50 -175 50 -42 -1 -44 -2 -26 -15z
m1556 -2725 c12 -23 6 -40 -14 -40 -20 0 -39 27 -32 45 8 21 33 19 46 -5z"/>
<path d="M2740 5031 c-14 -5 -45 -20 -68 -35 -23 -14 -46 -26 -51 -26 -6 0
-14 -6 -18 -12 -8 -13 -45 -46 -158 -143 -32 -27 -92 -67 -133 -87 -41 -21
-94 -51 -119 -68 -24 -16 -46 -30 -49 -30 -3 0 -34 -22 -70 -50 -73 -56 -185
-168 -219 -220 -13 -19 -44 -57 -69 -84 -26 -27 -49 -61 -53 -75 -3 -14 -11
-33 -18 -41 -6 -8 -22 -39 -34 -68 -21 -52 -22 -55 -6 -89 14 -30 15 -39 4
-59 -7 -14 -21 -24 -34 -24 -12 0 -29 -8 -37 -17 -22 -25 -70 -124 -113 -229
-20 -49 -40 -97 -45 -106 -6 -10 -10 -23 -10 -30 0 -7 -7 -26 -16 -43 -18 -32
-19 -36 -57 -220 -37 -180 -46 -268 -52 -510 -3 -150 -10 -235 -20 -268 -8
-26 -17 -107 -20 -180 -7 -142 -30 -253 -47 -223 -11 20 -2 83 13 88 13 4 17
60 4 64 -10 4 -55 -85 -55 -109 0 -7 -4 -17 -9 -23 -5 -5 -23 -66 -40 -135
-23 -94 -28 -133 -22 -156 11 -36 -7 -119 -38 -178 -27 -50 -26 -81 1 -122 31
-44 44 -47 90 -23 48 25 161 28 204 5 16 -8 41 -15 56 -15 15 0 44 -7 65 -16
21 -9 47 -20 58 -24 11 -4 41 -17 66 -29 25 -11 49 -21 53 -21 13 0 5 18 -11
24 -10 3 -40 19 -68 35 -27 16 -59 30 -71 30 -11 1 -24 5 -30 10 -12 11 -105
41 -179 57 -112 24 -120 27 -137 42 -25 21 -23 28 17 70 27 29 35 45 35 74 0
20 5 49 12 63 15 34 1 49 -35 36 -18 -7 -28 -7 -33 0 -11 18 41 103 77 126 51
32 79 64 79 89 0 17 4 22 15 18 18 -7 18 -6 0 46 -10 29 -12 47 -5 60 6 10 10
40 10 67 0 36 7 58 26 87 25 36 26 40 12 70 -10 21 -12 40 -7 61 5 16 6 39 3
51 -3 13 1 35 9 51 25 45 38 87 38 118 0 93 -3 129 -15 162 -7 22 -9 49 -5 63
4 14 7 38 8 54 1 16 8 37 17 47 11 13 13 22 6 36 -7 13 -6 35 5 73 9 30 15 66
15 80 0 25 24 128 38 165 5 11 16 45 25 75 16 53 37 105 56 142 5 10 9 29 9
44 0 38 16 64 72 115 49 45 51 47 42 85 -4 22 -7 46 -5 54 1 8 2 28 1 44 -1
37 46 139 62 134 7 -3 15 -18 19 -35 3 -17 9 -39 13 -49 6 -16 8 -16 16 -4 6
8 10 29 10 47 0 46 15 79 40 86 18 5 20 10 15 39 -5 25 0 45 20 82 17 33 22
51 15 56 -18 11 6 60 30 60 11 0 20 5 20 10 0 6 6 10 13 10 17 0 53 38 76 80
16 31 45 46 122 64 18 4 29 15 35 37 8 26 17 34 54 45 25 8 57 14 71 14 14 0
46 15 70 34 24 18 54 36 67 40 12 4 22 12 22 18 0 5 7 7 16 4 8 -3 25 -1 36 5
18 10 20 18 15 76 -5 61 -4 65 20 74 14 5 38 22 54 38 16 16 53 43 82 60 28
16 63 40 76 52 23 22 23 23 5 30 -23 9 -23 9 -54 0z"/>
<path d="M8203 5022 c-20 -3 -21 -7 -16 -57 9 -86 -3 -137 -43 -179 -21 -23
-33 -44 -30 -53 3 -8 6 -18 6 -23 0 -16 28 -18 55 -4 26 13 30 13 52 -8 22
-21 26 -21 51 -7 18 10 27 23 27 39 0 21 -6 26 -39 30 -34 4 -41 10 -52 40
-19 52 -16 106 6 150 31 61 26 80 -17 72z"/>
<path d="M1027 4973 c-12 -12 -7 -78 7 -98 7 -11 16 -29 18 -40 4 -18 6 -17
18 7 12 25 10 34 -12 83 -14 30 -28 52 -31 48z"/>
<path d="M8357 4892 c-20 -41 -14 -75 11 -70 27 5 40 108 15 108 -4 0 -16 -17
-26 -38z"/>
<path d="M174 4895 c-8 -34 1 -55 26 -55 28 0 35 23 15 54 -22 33 -33 33 -41
1z"/>
<path d="M5660 4875 c-11 -13 -7 -15 22 -15 20 0 46 -8 59 -18 19 -15 44 -19
127 -20 123 -1 136 14 39 47 -79 26 -227 30 -247 6z"/>
<path d="M3607 4853 c-15 -15 -5 -23 28 -23 36 0 47 13 19 24 -20 8 -39 8 -47
-1z"/>
<path d="M3145 4840 c-4 -6 7 -10 25 -10 18 0 29 4 25 10 -3 6 -15 10 -25 10
-10 0 -22 -4 -25 -10z"/>
<path d="M3 4725 l2 -109 35 -24 c41 -27 59 -56 60 -94 0 -16 4 -28 10 -28 13
0 34 -43 60 -123 12 -37 26 -69 31 -73 5 -3 9 -12 9 -21 0 -9 6 -24 14 -32 19
-22 46 -163 45 -231 -1 -30 4 -75 10 -100 28 -104 11 -293 -27 -307 -9 -3 -23
-11 -31 -17 -8 -6 -41 -11 -75 -12 -34 0 -80 -1 -103 -2 l-43 -2 0 -49 0 -48
163 -6 c89 -4 173 -9 187 -12 14 -4 33 0 43 7 17 13 17 21 6 125 -11 107 -10
114 10 157 27 54 21 98 -17 154 -24 34 -26 44 -23 134 3 102 -11 193 -37 243
-8 17 -30 72 -48 124 -18 51 -48 119 -67 150 -19 31 -45 76 -57 101 -12 25
-43 68 -69 95 -26 28 -56 64 -69 80 l-22 30 3 -110z"/>
<path d="M2972 4790 c-26 -34 -28 -64 -6 -82 8 -7 24 -21 35 -30 10 -10 21
-18 24 -18 3 0 11 0 19 0 7 0 16 -9 19 -21 5 -18 11 -20 37 -14 24 5 38 1 66
-20 19 -14 42 -24 52 -22 14 4 14 6 -5 12 -12 4 -24 13 -27 21 -3 8 -11 14
-18 14 -7 0 -24 12 -37 25 -13 14 -35 28 -50 31 -47 10 -51 13 -51 38 0 14 -4
28 -10 31 -5 3 -10 19 -10 36 0 37 -10 37 -38 -1z"/>
<path d="M3225 4810 c3 -5 18 -10 33 -10 15 0 35 -9 44 -19 14 -17 26 -19 85
-14 37 2 70 7 72 9 9 9 -10 16 -56 20 -26 2 -70 8 -98 13 -66 13 -87 13 -80 1z"/>
<path d="M5600 4783 c-14 -3 -29 -8 -35 -13 -5 -4 -23 -10 -40 -14 -16 -4 -48
-23 -70 -41 -75 -63 -145 -131 -145 -143 0 -6 -20 -31 -45 -55 -25 -24 -45
-47 -45 -51 0 -17 28 -2 55 30 37 45 121 126 143 138 9 5 30 22 47 38 16 16
41 31 55 34 43 9 140 58 140 72 0 12 -14 13 -60 5z"/>
<path d="M3122 4731 c6 -11 27 -22 45 -26 18 -3 33 -10 33 -14 0 -5 10 -11 23
-14 19 -5 18 -3 -8 18 -16 14 -38 25 -48 25 -10 0 -20 7 -23 15 -4 8 -12 15
-20 15 -11 0 -12 -4 -2 -19z"/>
<path d="M7721 4704 c-12 -28 -7 -44 14 -44 17 0 23 17 17 47 -6 30 -16 29
-31 -3z"/>
<path d="M5900 4585 c0 -9 5 -15 11 -13 6 2 11 8 11 13 0 5 -5 11 -11 13 -6 2
-11 -4 -11 -13z"/>
<path d="M3435 4570 c-8 -13 20 -24 36 -15 8 6 7 10 -2 16 -18 11 -26 11 -34
-1z"/>
<path d="M3324 4525 c24 -18 59 -20 54 -2 -3 6 -20 13 -39 15 -32 2 -33 1 -15
-13z"/>
<path d="M3410 4503 c1 -12 73 -43 99 -43 12 0 19 4 16 10 -3 6 -19 10 -35 10
-15 0 -30 7 -34 15 -5 15 -46 22 -46 8z"/>
<path d="M7569 4488 c-6 -12 -12 -64 -13 -117 -1 -90 0 -96 19 -96 18 0 21 9
26 90 9 130 -3 177 -32 123z"/>
<path d="M3545 4440 c3 -5 15 -10 25 -10 10 0 22 -5 25 -11 9 -14 108 -58 117
-52 12 6 -1 23 -17 23 -7 0 -15 7 -19 15 -3 8 -16 15 -29 15 -14 0 -30 7 -37
15 -14 17 -75 21 -65 5z"/>
<path d="M5178 4419 c-10 -17 -18 -36 -18 -43 0 -11 -11 -27 -51 -74 -6 -7 -8
-16 -5 -19 10 -11 65 48 86 92 33 68 22 105 -12 44z"/>
<path d="M640 4368 c1 -32 17 -41 65 -33 93 13 98 33 10 34 -31 0 -60 3 -65 6
-6 3 -10 0 -10 -7z"/>
<path d="M472 4358 c5 -15 28 -18 29 -3 0 6 -7 12 -17 13 -10 3 -15 -1 -12
-10z"/>
<path d="M6710 4183 c0 -15 4 -35 10 -43 8 -12 10 -12 15 2 9 24 2 61 -12 66
-9 2 -13 -6 -13 -25z"/>
<path d="M1345 4110 c-86 -11 -95 -16 -95 -56 0 -42 17 -51 57 -31 15 8 66 18
113 22 88 7 150 26 150 45 0 28 -93 36 -225 20z"/>
<path d="M6631 3701 c-1 -69 2 -102 9 -95 6 6 6 44 1 104 l-8 95 -2 -104z"/>
<path d="M6911 3729 c-6 -18 -11 -38 -11 -46 0 -8 -7 -21 -15 -29 -9 -9 -15
-34 -15 -59 0 -25 -6 -64 -14 -87 -16 -46 -25 -162 -14 -174 4 -3 10 7 13 22
4 16 10 40 15 54 32 94 69 252 73 304 3 49 -17 58 -32 15z"/>
<path d="M2487 3564 c-4 -4 -7 -34 -7 -66 0 -78 24 -76 28 2 3 50 -6 78 -21
64z"/>
<path d="M6631 3543 c0 -16 4 -37 9 -48 6 -15 9 -8 9 28 1 26 -3 47 -9 47 -5
0 -10 -12 -9 -27z"/>
<path d="M520 3450 c0 -5 9 -10 20 -10 11 0 20 5 20 10 0 6 -9 10 -20 10 -11
0 -20 -4 -20 -10z"/>
<path d="M596 3451 c-3 -5 1 -12 10 -15 27 -10 44 -7 44 9 0 16 -45 21 -54 6z"/>
<path d="M727 3453 c-9 -2 -15 -8 -13 -12 6 -10 86 -1 86 10 0 9 -41 10 -73 2z"/>
<path d="M1152 3448 c6 -17 62 -32 84 -24 15 6 14 9 -10 21 -35 18 -79 20 -74
3z"/>
<path d="M6656 3284 c-8 -42 3 -244 14 -244 4 0 15 55 24 122 15 113 15 123
-1 140 -23 26 -30 23 -37 -18z"/>
<path d="M2090 3276 c0 -27 20 -67 30 -61 5 3 10 22 10 41 0 27 -4 34 -20 34
-11 0 -20 -6 -20 -14z"/>
<path d="M7007 3212 c-12 -13 -22 -46 -27 -86 -6 -51 -13 -71 -31 -85 -15 -12
-20 -24 -16 -35 9 -24 31 -15 35 14 2 13 10 29 17 35 18 14 47 116 43 149 -3
28 -3 28 -21 8z"/>
<path d="M2130 3187 c0 -7 7 -22 15 -33 8 -10 15 -28 15 -40 0 -11 9 -29 20
-39 19 -18 20 -17 20 3 0 11 -11 34 -25 50 -14 17 -25 39 -25 51 0 12 -4 21
-10 21 -5 0 -10 -6 -10 -13z"/>
<path d="M4600 3171 c0 -29 14 -33 33 -10 22 26 22 29 -8 29 -18 0 -25 -5 -25
-19z"/>
<path d="M4660 3167 c0 -26 26 -39 40 -22 15 18 13 20 -17 29 -17 5 -23 3 -23
-7z"/>
<path d="M2002 3033 c2 -10 10 -18 18 -18 22 0 18 29 -3 33 -14 3 -18 -1 -15
-15z"/>
<path d="M4647 3043 c-11 -11 14 -33 38 -33 24 0 49 22 38 33 -3 4 -21 7 -38
7 -17 0 -35 -3 -38 -7z"/>
<path d="M2491 2950 l1 -45 10 34 c6 23 6 37 -1 44 -8 8 -11 -2 -10 -33z"/>
<path d="M6689 2983 c-25 -6 -29 -33 -28 -203 1 -160 11 -170 25 -26 4 39 13
85 21 103 14 35 18 119 6 126 -5 2 -15 2 -24 0z"/>
<path d="M2042 2960 c13 -20 38 -28 38 -12 0 12 -23 32 -37 32 -11 0 -11 -4
-1 -20z"/>
<path d="M4735 2959 c-8 -23 -1 -34 14 -24 13 8 15 45 2 45 -5 0 -13 -9 -16
-21z"/>
<path d="M4646 2951 c-9 -13 4 -41 19 -41 13 0 41 28 34 34 -12 10 -48 15 -53
7z"/>
<path d="M7332 2869 c-7 -12 -11 -24 -8 -27 6 -6 35 27 36 41 0 14 -15 7 -28
-14z"/>
<path d="M2152 2786 c2 -16 9 -31 16 -34 17 -5 15 20 -3 44 -15 18 -15 18 -13
-10z"/>
<path d="M8633 2633 c-46 -6 -41 -23 6 -23 44 0 71 8 71 21 0 9 -16 9 -77 2z"/>
<path d="M6636 2574 c-4 -15 -2 -32 3 -37 8 -8 11 0 11 26 0 44 -5 47 -14 11z"/>
<path d="M0 2564 c0 -24 2 -24 93 -25 50 -1 124 -4 162 -7 64 -5 441 -7 680
-4 55 1 118 -1 140 -4 31 -4 46 -1 65 14 19 16 22 23 13 34 -10 12 -102 14
-583 15 l-570 1 0 -24z"/>
<path d="M4610 2524 c0 -25 66 -47 109 -36 l36 9 -52 8 c-29 4 -58 14 -64 21
-15 19 -29 18 -29 -2z"/>
<path d="M6600 2422 c0 -21 -7 -47 -15 -58 -16 -21 -20 -54 -6 -54 13 0 41 81
41 118 0 18 -4 32 -10 32 -5 0 -10 -17 -10 -38z"/>
<path d="M8932 2398 c7 -20 68 -23 68 -4 0 12 -10 16 -36 16 -24 0 -34 -4 -32
-12z"/>
<path d="M8799 2387 c15 -19 41 -23 41 -7 0 6 -4 10 -9 10 -5 0 -18 3 -28 7
-16 6 -16 5 -4 -10z"/>
<path d="M7331 2329 c-44 -17 -103 -71 -92 -82 8 -8 23 -4 51 12 22 12 45 19
50 16 15 -9 60 22 60 40 0 8 -4 15 -9 15 -5 0 -15 2 -23 4 -7 3 -24 0 -37 -5z"/>
<path d="M2022 2228 c6 -18 28 -21 28 -4 0 9 -7 16 -16 16 -9 0 -14 -5 -12
-12z"/>
<path d="M6510 2195 c0 -8 5 -15 10 -15 6 0 10 7 10 15 0 8 -4 15 -10 15 -5 0
-10 -7 -10 -15z"/>
<path d="M8938 2168 c-21 -11 -38 -24 -38 -30 0 -6 16 -28 35 -49 35 -39 44
-59 25 -59 -6 0 -18 -16 -27 -36 -16 -32 -16 -37 -3 -47 9 -7 23 -25 33 -40
10 -15 22 -25 27 -22 6 4 10 71 10 156 0 164 2 160 -62 127z"/>
<path d="M6474 2135 c-8 -46 8 -227 21 -232 7 -2 10 45 10 132 0 100 -3 135
-12 135 -7 0 -15 -16 -19 -35z"/>
<path d="M8827 1998 c-2 -7 3 -26 11 -43 l15 -30 10 23 c7 16 8 29 1 40 -14
21 -31 26 -37 10z"/>
<path d="M8524 1892 c-50 -15 -101 -35 -115 -44 l-24 -17 32 0 c17 -1 35 4 38
9 3 6 23 10 44 10 21 0 41 3 45 7 4 4 30 14 57 23 52 16 69 34 34 37 -11 0
-61 -11 -111 -25z"/>
<path d="M6970 1870 c0 -5 9 -10 20 -10 11 0 20 5 20 10 0 6 -9 10 -20 10 -11
0 -20 -4 -20 -10z"/>
<path d="M8850 1855 c0 -8 10 -20 23 -26 12 -6 33 -22 47 -35 14 -12 37 -26
53 -29 26 -7 27 -5 27 29 0 34 -2 36 -33 36 -18 0 -49 9 -70 20 -44 24 -47 24
-47 5z"/>
<path d="M6510 1753 c0 -5 5 -15 10 -23 8 -12 10 -11 10 8 0 12 -4 22 -10 22
-5 0 -10 -3 -10 -7z"/>
<path d="M7175 1750 c-45 -8 -45 -10 5 -15 46 -3 100 5 100 16 0 10 -45 10
-105 -1z"/>
<path d="M8055 1726 c-16 -11 -17 -22 -11 -85 5 -55 3 -78 -9 -102 -31 -59 30
-150 73 -107 17 17 15 35 -9 68 -18 24 -21 36 -15 72 19 109 22 148 12 158
-13 13 -19 13 -41 -4z"/>
<path d="M6525 1680 c9 -31 25 -50 25 -29 0 7 -8 23 -16 34 -16 19 -16 19 -9
-5z"/>
<path d="M6540 1540 c0 -22 5 -40 10 -40 6 0 10 18 10 40 0 22 -4 40 -10 40
-5 0 -10 -18 -10 -40z"/>
<path d="M7494 1535 c-7 -17 4 -37 17 -30 12 8 12 45 -1 45 -6 0 -13 -7 -16
-15z"/>
<path d="M7398 1498 c-27 -11 -48 -24 -48 -29 0 -16 57 -9 80 9 39 32 20 43
-32 20z"/>
<path d="M6521 1437 c-16 -42 -17 -167 -2 -167 5 0 11 35 13 78 2 42 8 85 12
95 5 11 4 17 -3 17 -6 0 -15 -10 -20 -23z"/>
<path d="M8137 1328 c-15 -12 -14 -15 3 -37 11 -12 37 -27 57 -32 21 -5 182
-9 358 -7 176 1 348 1 383 0 l62 -3 0 41 0 40 -357 1 c-197 0 -387 3 -424 5
-42 3 -71 0 -82 -8z"/>
<path d="M720 1220 c-52 -5 -204 -8 -337 -8 -133 -1 -274 -4 -313 -8 l-70 -7
0 -33 0 -33 418 4 c248 2 435 -1 462 -6 89 -20 118 15 61 72 -33 32 -39 33
-221 19z"/>
<path d="M1393 1160 c-14 -6 -23 -18 -23 -31 0 -16 4 -19 18 -13 16 7 52 11
110 13 32 1 27 17 -9 30 -38 13 -66 13 -96 1z"/>
<path d="M7524 1111 c8 -12 86 -12 86 0 0 5 -21 9 -46 9 -25 0 -43 -4 -40 -9z"/>
<path d="M1665 1020 c-116 -18 -135 -23 -151 -41 -10 -11 -14 -22 -10 -26 4
-4 10 -2 14 4 4 6 35 14 70 17 34 3 79 13 99 21 19 8 44 15 54 15 11 0 19 5
19 10 0 11 -20 11 -95 0z"/>
<path d="M2350 875 c-14 -8 -35 -19 -47 -24 -13 -6 -23 -18 -23 -27 0 -8 -14
-21 -31 -27 -26 -10 -29 -16 -24 -37 15 -59 11 -74 -23 -91 -40 -20 -39 -31 2
-44 28 -9 31 -14 32 -50 0 -22 -5 -50 -13 -62 -12 -21 -10 -24 33 -54 39 -27
45 -35 39 -56 -7 -30 32 -102 70 -127 14 -9 25 -23 25 -31 0 -8 5 -15 10 -15
6 0 10 11 10 24 0 14 -4 28 -10 31 -5 3 -10 21 -10 39 0 18 -7 41 -15 52 -9
12 -14 43 -15 84 0 45 -5 73 -17 90 -17 24 -22 49 -26 140 -2 42 0 45 31 53
26 8 32 15 32 38 0 34 23 59 56 59 22 0 24 -4 24 -42 0 -25 -7 -49 -17 -61
-26 -27 -25 -242 0 -278 12 -17 17 -45 17 -99 0 -71 9 -100 32 -100 4 0 8 9 8
20 0 12 7 35 16 52 13 25 15 51 12 120 l-6 89 36 29 c20 16 32 33 28 37 -4 4
-12 0 -17 -10 -15 -26 -54 -21 -78 9 -28 36 -12 58 36 49 l33 -6 -4 57 c-2 31
-9 61 -15 67 -6 6 -11 19 -11 29 0 9 -14 33 -31 53 -27 31 -37 35 -78 35 -25
0 -57 -7 -71 -15z"/>
<path d="M1340 765 c0 -8 5 -15 10 -15 6 0 10 7 10 15 0 8 -4 15 -10 15 -5 0
-10 -7 -10 -15z"/>
<path d="M7390 670 c0 -5 12 -10 28 -10 21 0 24 2 12 10 -20 13 -40 13 -40 0z"/>
<path d="M1720 580 c-12 -8 -11 -10 8 -10 12 0 22 5 22 10 0 13 -11 13 -30 0z"/>
<path d="M1640 550 c-11 -7 -7 -10 17 -10 17 0 35 5 38 10 8 13 -35 13 -55 0z"/>
<path d="M1570 520 c0 -5 7 -10 15 -10 8 0 15 5 15 10 0 6 -7 10 -15 10 -8 0
-15 -4 -15 -10z"/>
<path d="M7291 516 c11 -10 139 -16 139 -6 0 6 -29 10 -72 10 -39 0 -69 -2
-67 -4z"/>
<path d="M8615 509 c-66 -4 -196 -9 -290 -13 -416 -14 -472 -22 -433 -62 13
-13 35 -17 90 -18 67 -1 624 19 828 29 47 2 109 4 138 5 l52 0 0 36 0 35 -132
-3 c-73 -2 -187 -6 -253 -9z"/>
<path d="M1970 480 c0 -5 6 -10 14 -10 8 0 18 5 21 10 3 6 -3 10 -14 10 -12 0
-21 -4 -21 -10z"/>
<path d="M1421 449 c-12 -12 -20 -24 -16 -27 3 -3 15 4 27 16 28 28 18 38 -11
11z"/>
<path d="M1850 450 c0 -13 20 -13 40 0 12 8 9 10 -12 10 -16 0 -28 -4 -28 -10z"/>
<path d="M1695 400 c-3 -5 3 -10 14 -10 12 0 21 5 21 10 0 6 -6 10 -14 10 -8
0 -18 -4 -21 -10z"/>
<path d="M1542 320 c-11 -17 -10 -20 8 -20 10 0 24 9 30 20 9 17 8 20 -7 20
-10 0 -24 -9 -31 -20z"/>
<path d="M8786 313 c-4 -4 -53 -9 -109 -11 -221 -6 -315 -11 -387 -22 -41 -6
-134 -11 -207 -11 -128 -1 -134 -2 -188 -31 -30 -16 -55 -35 -55 -43 0 -24 93
-39 153 -24 31 7 92 11 152 9 186 -7 774 3 823 14 31 7 32 9 32 57 l0 49 -42
2 c-24 1 -63 2 -88 3 -25 1 -52 4 -61 8 -8 4 -19 4 -23 0z"/>
<path d="M575 291 c-187 -3 -345 -9 -351 -13 -6 -4 -59 -8 -118 -10 l-106 -2
0 -34 0 -33 233 6 c1004 26 1012 26 1012 55 0 34 -134 41 -670 31z"/>
<path d="M8210 105 l-11 -28 -22 22 c-13 11 -28 21 -35 21 -13 0 -42 -39 -42
-56 0 -17 87 -64 117 -64 24 0 24 1 17 62 -4 35 -8 65 -10 67 -2 2 -8 -9 -14
-24z"/>
<path d="M7710 100 c-14 -5 -60 -16 -102 -25 -71 -16 -82 -16 -140 -1 -90 22
-148 22 -148 -2 0 -13 12 -23 41 -31 60 -18 255 -31 293 -19 17 5 54 13 81 16
47 7 50 9 50 37 0 25 -4 30 -25 32 -14 1 -36 -3 -50 -7z"/>
</g>
</svg>
